<svg xmlns="http://www.w3.org/2000/svg" xmlns:xlink="http://www.w3.org/1999/xlink" width="500" zoomAndPan="magnify" viewBox="0 0 375 374.999991" height="500" preserveAspectRatio="xMidYMid meet" version="1.0"><defs><clipPath id="f890d03158"><path d="M 111 345 L 157 345 L 157 365.992188 L 111 365.992188 Z M 111 345 " clip-rule="nonzero"/></clipPath><clipPath id="c117dd082c"><path d="M 64 345 L 110 345 L 110 365.992188 L 64 365.992188 Z M 64 345 " clip-rule="nonzero"/></clipPath><clipPath id="e8ff252de7"><path d="M 219 345 L 265 345 L 265 365.992188 L 219 365.992188 Z M 219 345 " clip-rule="nonzero"/></clipPath><clipPath id="27da658d99"><path d="M 266 345 L 312 345 L 312 365.992188 L 266 365.992188 Z M 266 345 " clip-rule="nonzero"/></clipPath><clipPath id="61c495e723"><path d="M 304 144 L 326.816406 144 L 326.816406 171 L 304 171 Z M 304 144 " clip-rule="nonzero"/></clipPath><clipPath id="3bf7563ea9"><path d="M 126 8.992188 L 176 8.992188 L 176 59 L 126 59 Z M 126 8.992188 " clip-rule="nonzero"/></clipPath></defs><path fill="#fbc3ac" d="M 121.183594 142.578125 C 121.183594 142.578125 136.589844 153.023438 142.125 152.527344 C 148.445312 151.964844 164.789062 125.265625 167.511719 119.53125 C 172.167969 116.78125 180.683594 110.996094 179.726562 105.988281 C 179.726562 105.988281 181.734375 102.003906 179.300781 100.378906 C 179.300781 100.378906 180.035156 97.695312 178.25 96.207031 C 178.25 96.207031 178.605469 93.078125 175.890625 92.757812 C 173.175781 92.4375 172.777344 99.976562 164.398438 104.488281 C 164.398438 104.488281 169.777344 99.964844 168.59375 95.449219 C 167.40625 90.9375 164.871094 97.121094 162.25 100.554688 C 160.035156 103.449219 157.789062 108.054688 157.273438 112.484375 C 157.21875 112.953125 157.128906 113.414062 157.007812 113.867188 L 138.875 130.808594 Z M 121.183594 142.578125 " fill-opacity="1" fill-rule="nonzero"/><path fill="#b6665e" d="M 124.894531 96.507812 C 124.894531 96.507812 129.625 97.386719 143.113281 126.855469 C 143.113281 126.855469 138.324219 138.804688 126.9375 140.726562 C 125.652344 140.945312 124.894531 96.507812 124.894531 96.507812 Z M 124.894531 96.507812 " fill-opacity="1" fill-rule="nonzero"/><path fill="#b6665e" d="M 144.636719 127.417969 C 144.636719 127.417969 144.949219 152.515625 142.238281 153.519531 C 138.910156 154.746094 133.300781 154.570312 126.820312 146.148438 C 123.519531 141.863281 120.773438 138.109375 120.191406 136.289062 C 119.828125 135.171875 121.507812 133.875 122.25 132.96875 C 123.957031 130.875 127.519531 126.824219 130.554688 125.441406 C 132.964844 124.34375 136.125 123.539062 138.339844 123.050781 C 139.878906 122.710938 143.214844 123.675781 143.777344 125.152344 Z M 144.636719 127.417969 " fill-opacity="1" fill-rule="nonzero"/><g clip-path="url(#f890d03158)"><path fill="#434343" d="M 142.601562 346.597656 C 143.804688 348.882812 156.691406 352.992188 156.992188 360.949219 C 157.003906 361.4375 156.925781 361.90625 156.753906 362.359375 C 156.582031 362.8125 156.328125 363.214844 155.996094 363.570312 C 155.664062 363.921875 155.277344 364.199219 154.835938 364.398438 C 154.394531 364.597656 153.929688 364.703125 153.445312 364.71875 C 143.851562 365.066406 112.371094 365.988281 111.914062 363.226562 C 110.816406 356.632812 113.164062 347.28125 113.285156 345.773438 Z M 142.601562 346.597656 " fill-opacity="1" fill-rule="nonzero"/></g><g clip-path="url(#c117dd082c)"><path fill="#434343" d="M 95.542969 346.597656 C 96.746094 348.882812 109.628906 352.992188 109.929688 360.949219 C 109.945312 361.4375 109.867188 361.90625 109.695312 362.359375 C 109.523438 362.8125 109.269531 363.214844 108.9375 363.570312 C 108.605469 363.921875 108.21875 364.199219 107.777344 364.398438 C 107.335938 364.597656 106.871094 364.703125 106.386719 364.71875 C 96.792969 365.066406 65.3125 365.988281 64.855469 363.226562 C 63.753906 356.632812 66.105469 347.28125 66.226562 345.773438 Z M 95.542969 346.597656 " fill-opacity="1" fill-rule="nonzero"/></g><path fill="#434343" d="M 73.183594 156.628906 C 73.183594 156.628906 61.257812 307.960938 61.976562 350.226562 L 101.3125 349.148438 L 105.023438 213.878906 L 110.652344 350.226562 L 144.421875 348.066406 L 127.058594 136.445312 Z M 73.183594 156.628906 " fill-opacity="1" fill-rule="nonzero"/><path fill="#fbc3ac" d="M 114.390625 96.636719 L 108.8125 103.316406 C 108.8125 103.316406 103.359375 106.40625 101.933594 105.84375 C 100.511719 105.28125 93.84375 105.003906 93.234375 102.472656 C 92.855469 100.902344 90.800781 97 89.292969 94.265625 C 88.710938 93.210938 89.332031 91.796875 90.371094 91.796875 C 91.566406 91.824219 92.671875 91.519531 93.6875 90.886719 C 94.324219 90.464844 94.847656 89.933594 95.257812 89.289062 C 95.828125 88.414062 95.234375 85.34375 95.46875 83.804688 C 95.511719 83.527344 95.546875 83.234375 95.574219 82.925781 C 95.597656 82.652344 95.617188 82.367188 95.632812 82.074219 C 95.632812 81.964844 95.644531 81.859375 95.648438 81.757812 C 96.089844 75.730469 102.238281 79 105.375 80.433594 C 106.757812 81.066406 108.660156 78.183594 108.710938 78.089844 C 108.671875 78.21875 107.15625 82.910156 107.613281 87.039062 C 107.859375 89.265625 108.679688 91.328125 110.617188 92.421875 C 111.222656 92.769531 112.722656 92.582031 113.519531 92.820312 C 114.933594 93.238281 115.429688 95.390625 114.390625 96.636719 Z M 114.390625 96.636719 " fill-opacity="1" fill-rule="nonzero"/><path fill="#e39882" d="M 107.667969 87.457031 C 107.667969 87.457031 101.167969 91.066406 93.691406 90.894531 C 94.324219 90.472656 94.847656 89.9375 95.261719 89.292969 C 95.828125 88.417969 95.234375 85.351562 95.46875 83.808594 C 95.511719 83.53125 95.546875 83.238281 95.574219 82.933594 C 98.238281 83.03125 101.574219 83.164062 101.675781 83.226562 C 101.84375 83.320312 107.667969 87.457031 107.667969 87.457031 Z M 107.667969 87.457031 " fill-opacity="1" fill-rule="nonzero"/><path fill="#fbc3ac" d="M 113.667969 41.410156 C 113.667969 41.410156 119.953125 49.367188 119.390625 52.792969 C 118.828125 56.222656 117.714844 63.289062 118.105469 72.039062 C 118.496094 80.792969 111.234375 88.273438 103.28125 88.148438 C 93.082031 87.996094 88.46875 82.902344 85.152344 75.996094 C 85.152344 75.996094 82.597656 79.179688 78.179688 74.179688 C 75.066406 70.644531 75.851562 63.355469 80.144531 63.859375 C 83.5625 64.261719 83.363281 65.65625 83.363281 65.65625 C 83.363281 65.65625 82.519531 47.351562 87.496094 46.617188 C 92.46875 45.878906 109.25 50.472656 113.667969 41.410156 Z M 113.667969 41.410156 " fill-opacity="1" fill-rule="nonzero"/><path fill="#434343" d="M 92.15625 65.066406 C 91.816406 65.066406 91.582031 64.910156 91.445312 64.601562 C 91.308594 64.292969 91.351562 64.011719 91.578125 63.761719 C 91.738281 63.589844 95.535156 59.503906 101.082031 60.820312 C 101.300781 60.863281 101.46875 60.976562 101.585938 61.160156 C 101.707031 61.347656 101.738281 61.546875 101.6875 61.761719 C 101.636719 61.976562 101.515625 62.140625 101.328125 62.253906 C 101.136719 62.367188 100.9375 62.394531 100.722656 62.335938 C 96.082031 61.230469 92.863281 64.660156 92.726562 64.808594 C 92.574219 64.976562 92.382812 65.0625 92.15625 65.066406 Z M 92.15625 65.066406 " fill-opacity="1" fill-rule="nonzero"/><path fill="#434343" d="M 116.089844 65.113281 C 115.769531 65.109375 115.539062 64.964844 115.398438 64.675781 C 115.320312 64.519531 113.496094 61 108.4375 62.425781 C 108.230469 62.484375 108.035156 62.460938 107.847656 62.355469 C 107.660156 62.25 107.535156 62.089844 107.476562 61.882812 C 107.417969 61.675781 107.441406 61.480469 107.546875 61.289062 C 107.65625 61.101562 107.8125 60.980469 108.019531 60.921875 C 114.371094 59.132812 116.777344 63.945312 116.800781 63.992188 C 116.890625 64.1875 116.902344 64.386719 116.832031 64.585938 C 116.761719 64.789062 116.628906 64.9375 116.4375 65.03125 C 116.328125 65.085938 116.214844 65.113281 116.089844 65.113281 Z M 116.089844 65.113281 " fill-opacity="1" fill-rule="nonzero"/><path fill="#434343" d="M 100.335938 69.050781 C 100.335938 69.277344 100.292969 69.5 100.203125 69.710938 C 100.117188 69.925781 99.992188 70.113281 99.828125 70.273438 C 99.667969 70.4375 99.480469 70.5625 99.269531 70.648438 C 99.054688 70.738281 98.835938 70.78125 98.605469 70.78125 C 98.375 70.78125 98.15625 70.738281 97.945312 70.648438 C 97.730469 70.5625 97.546875 70.4375 97.382812 70.273438 C 97.21875 70.113281 97.09375 69.925781 97.007812 69.710938 C 96.921875 69.5 96.875 69.277344 96.875 69.050781 C 96.875 68.820312 96.921875 68.597656 97.007812 68.386719 C 97.09375 68.175781 97.21875 67.988281 97.382812 67.824219 C 97.546875 67.664062 97.730469 67.535156 97.945312 67.449219 C 98.15625 67.359375 98.375 67.316406 98.605469 67.316406 C 98.835938 67.316406 99.054688 67.359375 99.269531 67.449219 C 99.480469 67.535156 99.667969 67.664062 99.828125 67.824219 C 99.992188 67.988281 100.117188 68.175781 100.203125 68.386719 C 100.292969 68.597656 100.335938 68.820312 100.335938 69.050781 Z M 100.335938 69.050781 " fill-opacity="1" fill-rule="nonzero"/><path fill="#434343" d="M 112.851562 68.386719 C 112.847656 68.617188 112.804688 68.835938 112.714844 69.046875 C 112.625 69.257812 112.496094 69.445312 112.332031 69.605469 C 112.167969 69.765625 111.980469 69.890625 111.769531 69.976562 C 111.554688 70.0625 111.332031 70.101562 111.105469 70.101562 C 110.875 70.097656 110.65625 70.050781 110.445312 69.960938 C 110.234375 69.871094 110.046875 69.746094 109.886719 69.582031 C 109.726562 69.417969 109.601562 69.226562 109.515625 69.015625 C 109.429688 68.800781 109.390625 68.582031 109.390625 68.351562 C 109.394531 68.121094 109.441406 67.902344 109.53125 67.691406 C 109.621094 67.480469 109.746094 67.292969 109.910156 67.132812 C 110.074219 66.972656 110.261719 66.847656 110.476562 66.761719 C 110.6875 66.675781 110.910156 66.632812 111.140625 66.636719 C 111.367188 66.640625 111.589844 66.683594 111.800781 66.773438 C 112.011719 66.863281 112.195312 66.992188 112.355469 67.15625 C 112.519531 67.320312 112.640625 67.507812 112.726562 67.722656 C 112.8125 67.933594 112.855469 68.15625 112.851562 68.386719 Z M 112.851562 68.386719 " fill-opacity="1" fill-rule="nonzero"/><path fill="#e39882" d="M 104.167969 73.445312 C 104.046875 73.453125 103.941406 73.417969 103.851562 73.339844 C 103.761719 73.261719 103.710938 73.164062 103.699219 73.046875 C 103.691406 72.925781 103.726562 72.820312 103.800781 72.730469 C 103.878906 72.636719 103.980469 72.585938 104.097656 72.578125 C 104.632812 72.488281 105.574219 72.191406 105.835938 71.765625 C 105.910156 71.652344 105.921875 71.53125 105.875 71.40625 C 105.472656 70.101562 104.457031 66.609375 104.445312 66.574219 C 104.40625 66.457031 104.417969 66.34375 104.476562 66.238281 C 104.53125 66.128906 104.621094 66.058594 104.738281 66.023438 C 104.855469 65.988281 104.964844 66.003906 105.070312 66.0625 C 105.179688 66.125 105.246094 66.214844 105.277344 66.332031 C 105.285156 66.367188 106.296875 69.851562 106.703125 71.148438 C 106.828125 71.527344 106.785156 71.882812 106.574219 72.222656 C 106.019531 73.117188 104.417969 73.402344 104.238281 73.433594 C 104.214844 73.441406 104.191406 73.441406 104.167969 73.445312 Z M 104.167969 73.445312 " fill-opacity="1" fill-rule="nonzero"/><path fill="#b6665e" d="M 133.378906 191.585938 C 133.378906 191.585938 96.0625 204.402344 67.816406 192.796875 C 67.695312 169.808594 72.636719 97.742188 74.3125 97.207031 C 74.328125 97.207031 74.691406 96.167969 74.707031 96.160156 C 76.105469 95.722656 91.238281 91.042969 92.207031 90.699219 C 97.015625 98.246094 105.648438 102.964844 110.542969 91.21875 C 113.679688 92.359375 121.613281 94.414062 125.246094 96.664062 C 124.476562 96.1875 131.804688 168.707031 133.378906 191.585938 Z M 133.378906 191.585938 " fill-opacity="1" fill-rule="nonzero"/><path fill="#e39882" d="M 78.480469 71.066406 C 78.261719 71.066406 78.121094 70.960938 78.066406 70.746094 C 77.589844 68.960938 77.691406 67.585938 78.375 66.664062 C 78.867188 66.007812 79.523438 65.648438 80.339844 65.585938 C 80.460938 65.582031 80.5625 65.617188 80.652344 65.699219 C 80.738281 65.78125 80.785156 65.882812 80.789062 66 C 80.792969 66.121094 80.753906 66.222656 80.675781 66.3125 C 80.59375 66.398438 80.492188 66.445312 80.375 66.453125 C 79.828125 66.503906 79.390625 66.75 79.0625 67.1875 C 78.558594 67.882812 78.503906 69.035156 78.902344 70.523438 C 78.929688 70.640625 78.917969 70.75 78.855469 70.851562 C 78.796875 70.957031 78.710938 71.023438 78.59375 71.054688 C 78.558594 71.0625 78.519531 71.066406 78.480469 71.066406 Z M 78.480469 71.066406 " fill-opacity="1" fill-rule="nonzero"/><path fill="#434343" d="M 104.222656 225.503906 L 104.164062 225.503906 C 103.949219 225.488281 103.769531 225.398438 103.632812 225.234375 C 103.492188 225.070312 103.429688 224.882812 103.445312 224.667969 L 105.011719 204.019531 C 105.027344 203.804688 105.117188 203.625 105.28125 203.484375 C 105.445312 203.34375 105.632812 203.28125 105.847656 203.296875 C 106.0625 203.3125 106.242188 203.40625 106.382812 203.566406 C 106.523438 203.730469 106.585938 203.921875 106.570312 204.136719 L 105.011719 224.785156 C 104.996094 224.992188 104.910156 225.164062 104.757812 225.300781 C 104.605469 225.4375 104.429688 225.507812 104.222656 225.503906 Z M 104.222656 225.503906 " fill-opacity="1" fill-rule="nonzero"/><path fill="#b6665e" d="M 91.335938 89.933594 L 91.496094 92.878906 C 91.496094 92.878906 96.703125 100.648438 102.585938 100.179688 C 108.464844 99.710938 111.988281 91.628906 111.988281 91.628906 L 112 90.527344 C 112.019531 90.410156 112.027344 90.289062 112.019531 90.167969 C 112.011719 90.050781 111.988281 89.929688 111.953125 89.816406 C 111.914062 89.703125 111.863281 89.59375 111.796875 89.492188 C 111.730469 89.390625 111.65625 89.296875 111.566406 89.214844 C 111.480469 89.132812 111.382812 89.0625 111.277344 89.003906 C 111.171875 88.945312 111.058594 88.902344 110.941406 88.871094 C 110.824219 88.839844 110.707031 88.828125 110.585938 88.828125 C 110.464844 88.828125 110.347656 88.839844 110.230469 88.871094 C 107.335938 89.617188 101.628906 90.402344 93.09375 88.410156 C 92.867188 88.359375 92.644531 88.359375 92.421875 88.417969 C 92.199219 88.472656 92 88.574219 91.828125 88.726562 C 91.65625 88.875 91.523438 89.058594 91.4375 89.269531 C 91.351562 89.484375 91.316406 89.703125 91.335938 89.933594 Z M 91.335938 89.933594 " fill-opacity="1" fill-rule="nonzero"/><path fill="#e39882" d="M 103.097656 78.785156 C 100.550781 78.785156 99.375 77.3125 99.3125 77.226562 C 99.238281 77.132812 99.207031 77.027344 99.222656 76.90625 C 99.238281 76.789062 99.292969 76.691406 99.386719 76.617188 C 99.480469 76.542969 99.589844 76.515625 99.707031 76.53125 C 99.824219 76.542969 99.921875 76.597656 99.996094 76.691406 C 100.0625 76.78125 101.671875 78.730469 105.40625 77.507812 C 105.519531 77.472656 105.628906 77.480469 105.738281 77.535156 C 105.84375 77.589844 105.914062 77.671875 105.953125 77.785156 C 105.988281 77.898438 105.980469 78.011719 105.925781 78.117188 C 105.875 78.222656 105.789062 78.296875 105.675781 78.332031 C 104.839844 78.621094 103.980469 78.773438 103.097656 78.785156 Z M 103.097656 78.785156 " fill-opacity="1" fill-rule="nonzero"/><path fill="#434343" d="M 84.425781 63.839844 L 83.734375 72.164062 C 80.71875 67.253906 75.777344 66.273438 75.847656 57.09375 C 75.871094 54.375 78.296875 46.953125 87.441406 40.105469 C 96.582031 33.257812 100.476562 37.90625 100.476562 37.90625 C 102.660156 36.589844 105.027344 36 107.570312 36.128906 C 111.703125 36.34375 121.304688 44.066406 123.460938 53.96875 C 125.613281 63.867188 118.078125 70.421875 118.078125 70.421875 L 117.96875 64.546875 C 109.28125 62.175781 103.082031 50 103.082031 50 C 103.082031 50 97.589844 62.460938 84.425781 63.839844 Z M 84.425781 63.839844 " fill-opacity="1" fill-rule="nonzero"/><path fill="#b6665e" d="M 76.402344 122.40625 C 76.164062 124.019531 78.332031 135.273438 78.332031 135.273438 C 78.332031 135.273438 75.136719 143.707031 75.132812 143.710938 L 49.648438 141.421875 C 49.648438 141.421875 52.070312 130.269531 60.5625 112.910156 C 66.039062 101.726562 71.746094 97.566406 75.117188 96.019531 C 75.117188 96.019531 76.636719 120.789062 76.402344 122.40625 Z M 76.402344 122.40625 " fill-opacity="1" fill-rule="nonzero"/><path fill="#fbc3ac" d="M 52.546875 142.613281 C 51.507812 147.996094 51.085938 153.597656 52.785156 156.789062 C 57.804688 166.222656 99.484375 157.179688 99.484375 157.179688 L 97.941406 146.28125 L 68.707031 143.140625 Z M 52.546875 142.613281 " fill-opacity="1" fill-rule="nonzero"/><path fill="#b6665e" d="M 70.042969 143.199219 C 70.042969 143.199219 61.695312 161.085938 59.023438 161.761719 C 58.050781 162.007812 51.65625 160.136719 49.246094 151.671875 C 47.828125 146.703125 47.878906 143.5 48.160156 141.699219 C 48.246094 141.148438 48.460938 140.648438 48.800781 140.203125 C 49.140625 139.761719 49.566406 139.425781 50.078125 139.195312 C 52.421875 138.148438 57.191406 136.222656 60.359375 136.34375 C 62.886719 136.441406 65.917969 137.105469 68.015625 137.644531 C 68.367188 137.734375 68.695312 137.882812 68.992188 138.089844 C 69.292969 138.300781 69.546875 138.554688 69.753906 138.851562 C 69.960938 139.152344 70.109375 139.476562 70.203125 139.832031 C 70.292969 140.183594 70.320312 140.539062 70.28125 140.902344 Z M 70.042969 143.199219 " fill-opacity="1" fill-rule="nonzero"/><path fill="#434343" d="M 73.429688 143.847656 L 73.367188 143.847656 C 73.203125 143.832031 73.066406 143.757812 72.960938 143.628906 C 72.855469 143.5 72.8125 143.351562 72.828125 143.1875 L 74.558594 126.039062 C 74.574219 125.871094 74.648438 125.734375 74.777344 125.628906 C 74.90625 125.519531 75.054688 125.476562 75.222656 125.492188 C 75.390625 125.507812 75.527344 125.582031 75.632812 125.714844 C 75.738281 125.84375 75.785156 125.992188 75.769531 126.160156 L 74.039062 143.308594 C 74.023438 143.460938 73.957031 143.59375 73.839844 143.695312 C 73.722656 143.800781 73.585938 143.851562 73.429688 143.847656 Z M 73.429688 143.847656 " fill-opacity="1" fill-rule="nonzero"/><path fill="#434343" d="M 130.222656 155.355469 C 130.0625 155.355469 129.925781 155.300781 129.8125 155.195312 C 129.695312 155.085938 129.632812 154.953125 129.621094 154.796875 C 129.421875 152.410156 125.882812 123.945312 125.847656 123.65625 C 125.824219 123.492188 125.867188 123.339844 125.96875 123.210938 C 126.074219 123.078125 126.207031 123 126.375 122.980469 C 126.539062 122.960938 126.6875 123 126.820312 123.105469 C 126.953125 123.207031 127.027344 123.339844 127.046875 123.507812 C 127.195312 124.683594 130.625 152.285156 130.828125 154.703125 C 130.839844 154.871094 130.792969 155.015625 130.6875 155.144531 C 130.578125 155.273438 130.441406 155.34375 130.273438 155.359375 Z M 130.222656 155.355469 " fill-opacity="1" fill-rule="nonzero"/><path fill="#efecec" d="M 97.675781 76.257812 C 97.53125 76.257812 97.386719 76.257812 97.242188 76.246094 C 96.964844 76.226562 96.6875 76.191406 96.414062 76.136719 C 96.140625 76.082031 95.871094 76.011719 95.609375 75.921875 C 95.34375 75.832031 95.085938 75.726562 94.835938 75.605469 C 94.585938 75.480469 94.34375 75.34375 94.109375 75.1875 C 93.875 75.035156 93.65625 74.867188 93.445312 74.683594 C 93.234375 74.5 93.035156 74.304688 92.847656 74.097656 C 92.664062 73.890625 92.492188 73.667969 92.335938 73.4375 C 92.175781 73.207031 92.035156 72.96875 91.910156 72.71875 C 91.78125 72.46875 91.671875 72.214844 91.582031 71.949219 C 91.488281 71.6875 91.410156 71.417969 91.351562 71.144531 C 91.296875 70.871094 91.253906 70.597656 91.230469 70.316406 C 91.210938 70.039062 91.207031 69.761719 91.21875 69.480469 C 91.230469 69.203125 91.265625 68.925781 91.3125 68.652344 C 91.363281 68.375 91.429688 68.105469 91.515625 67.839844 C 91.597656 67.574219 91.699219 67.3125 91.816406 67.058594 C 91.9375 66.808594 92.070312 66.5625 92.21875 66.328125 C 92.371094 66.089844 92.535156 65.867188 92.714844 65.652344 C 92.890625 65.4375 93.082031 65.234375 93.289062 65.046875 C 93.492188 64.855469 93.710938 64.679688 93.9375 64.519531 C 94.164062 64.359375 94.402344 64.210938 94.648438 64.082031 C 94.898438 63.953125 95.152344 63.835938 95.410156 63.738281 C 95.671875 63.644531 95.941406 63.5625 96.210938 63.5 C 96.484375 63.4375 96.757812 63.390625 97.035156 63.363281 C 97.3125 63.335938 97.59375 63.328125 97.871094 63.335938 C 98.148438 63.34375 98.425781 63.371094 98.703125 63.417969 C 98.976562 63.460938 99.25 63.523438 99.515625 63.605469 C 99.785156 63.683594 100.042969 63.78125 100.300781 63.894531 C 100.554688 64.011719 100.800781 64.140625 101.039062 64.285156 C 101.277344 64.433594 101.503906 64.59375 101.71875 64.769531 C 101.9375 64.945312 102.140625 65.132812 102.335938 65.335938 C 102.527344 65.535156 102.707031 65.75 102.871094 65.976562 C 103.035156 66.199219 103.1875 66.4375 103.320312 66.679688 C 103.453125 66.925781 103.574219 67.179688 103.675781 67.4375 C 103.777344 67.699219 103.859375 67.964844 103.929688 68.234375 C 103.996094 68.507812 104.046875 68.78125 104.078125 69.058594 C 104.109375 69.335938 104.125 69.613281 104.117188 69.894531 C 104.113281 70.171875 104.09375 70.449219 104.050781 70.726562 C 104.011719 71.003906 103.953125 71.277344 103.878906 71.542969 C 103.804688 71.8125 103.710938 72.078125 103.601562 72.332031 C 103.492188 72.589844 103.367188 72.839844 103.222656 73.078125 C 103.082031 73.320312 102.925781 73.550781 102.753906 73.769531 C 102.582031 73.992188 102.398438 74.199219 102.199219 74.394531 C 102 74.59375 101.789062 74.773438 101.566406 74.941406 C 101.34375 75.113281 101.113281 75.265625 100.871094 75.40625 C 100.628906 75.542969 100.378906 75.667969 100.121094 75.773438 C 99.863281 75.878906 99.597656 75.96875 99.328125 76.039062 C 99.058594 76.113281 98.785156 76.167969 98.511719 76.203125 C 98.234375 76.238281 97.957031 76.257812 97.675781 76.257812 Z M 97.664062 64.210938 C 97.300781 64.210938 96.945312 64.246094 96.589844 64.316406 C 96.234375 64.386719 95.890625 64.492188 95.554688 64.628906 C 95.222656 64.765625 94.902344 64.933594 94.601562 65.128906 C 94.300781 65.328125 94.019531 65.554688 93.761719 65.808594 C 93.503906 66.0625 93.273438 66.335938 93.066406 66.636719 C 92.863281 66.933594 92.6875 67.25 92.546875 67.582031 C 92.402344 67.914062 92.292969 68.253906 92.214844 68.609375 C 92.136719 68.960938 92.09375 69.320312 92.085938 69.679688 C 92.078125 70.042969 92.105469 70.402344 92.167969 70.757812 C 92.230469 71.113281 92.324219 71.460938 92.457031 71.800781 C 92.585938 72.136719 92.746094 72.460938 92.9375 72.765625 C 93.128906 73.074219 93.347656 73.359375 93.59375 73.621094 C 93.839844 73.886719 94.113281 74.125 94.40625 74.335938 C 94.699219 74.546875 95.007812 74.730469 95.335938 74.878906 C 95.664062 75.03125 96.003906 75.148438 96.355469 75.234375 C 96.707031 75.320312 97.0625 75.371094 97.425781 75.386719 C 97.785156 75.402344 98.144531 75.382812 98.5 75.328125 C 98.859375 75.273438 99.207031 75.1875 99.546875 75.0625 C 99.886719 74.941406 100.214844 74.789062 100.523438 74.605469 C 100.835938 74.417969 101.125 74.207031 101.394531 73.964844 C 101.664062 73.722656 101.90625 73.457031 102.125 73.167969 C 102.339844 72.878906 102.527344 72.574219 102.6875 72.25 C 102.84375 71.921875 102.972656 71.585938 103.0625 71.234375 C 103.15625 70.886719 103.214844 70.53125 103.238281 70.171875 C 103.261719 69.804688 103.25 69.4375 103.203125 69.074219 C 103.15625 68.710938 103.074219 68.355469 102.957031 68.007812 C 102.835938 67.660156 102.6875 67.328125 102.503906 67.007812 C 102.320312 66.691406 102.109375 66.394531 101.867188 66.117188 C 101.625 65.839844 101.359375 65.589844 101.070312 65.367188 C 100.777344 65.144531 100.46875 64.953125 100.140625 64.789062 C 99.808594 64.625 99.46875 64.496094 99.113281 64.402344 C 98.761719 64.308594 98.402344 64.246094 98.035156 64.222656 C 97.910156 64.214844 97.785156 64.210938 97.664062 64.210938 Z M 97.664062 64.210938 " fill-opacity="1" fill-rule="nonzero"/><path fill="#efecec" d="M 112.839844 76.257812 C 112.699219 76.257812 112.554688 76.257812 112.410156 76.246094 C 111.988281 76.214844 111.574219 76.148438 111.164062 76.039062 C 110.753906 75.925781 110.359375 75.777344 109.980469 75.589844 C 109.601562 75.402344 109.242188 75.179688 108.90625 74.921875 C 108.570312 74.664062 108.265625 74.375 107.984375 74.054688 C 107.707031 73.734375 107.460938 73.394531 107.25 73.027344 C 107.039062 72.660156 106.867188 72.273438 106.730469 71.871094 C 106.59375 71.46875 106.5 71.058594 106.445312 70.640625 C 106.386719 70.21875 106.375 69.796875 106.402344 69.375 C 106.429688 68.949219 106.5 68.535156 106.609375 68.125 C 106.71875 67.714844 106.867188 67.320312 107.054688 66.941406 C 107.242188 66.5625 107.464844 66.203125 107.722656 65.867188 C 107.984375 65.53125 108.269531 65.222656 108.589844 64.945312 C 108.90625 64.664062 109.25 64.417969 109.617188 64.207031 C 109.984375 63.996094 110.367188 63.820312 110.769531 63.683594 C 111.171875 63.550781 111.582031 63.453125 112 63.398438 C 112.421875 63.34375 112.839844 63.332031 113.265625 63.359375 C 113.6875 63.386719 114.101562 63.457031 114.511719 63.566406 C 114.921875 63.675781 115.3125 63.824219 115.695312 64.011719 C 116.074219 64.199219 116.429688 64.421875 116.765625 64.679688 C 117.101562 64.9375 117.410156 65.226562 117.6875 65.546875 C 117.96875 65.867188 118.214844 66.207031 118.425781 66.574219 C 118.636719 66.945312 118.808594 67.328125 118.945312 67.730469 C 119.082031 68.128906 119.175781 68.542969 119.230469 68.960938 C 119.289062 69.382812 119.300781 69.804688 119.273438 70.226562 C 119.246094 70.632812 119.179688 71.03125 119.078125 71.421875 C 118.976562 71.816406 118.839844 72.195312 118.664062 72.5625 C 118.492188 72.929688 118.285156 73.277344 118.046875 73.605469 C 117.808594 73.933594 117.539062 74.234375 117.242188 74.511719 C 116.949219 74.789062 116.628906 75.039062 116.285156 75.253906 C 115.945312 75.472656 115.585938 75.65625 115.207031 75.804688 C 114.832031 75.953125 114.441406 76.066406 114.042969 76.144531 C 113.648438 76.21875 113.246094 76.257812 112.839844 76.257812 Z M 112.828125 64.210938 C 112.46875 64.214844 112.117188 64.25 111.765625 64.320312 C 111.414062 64.390625 111.074219 64.492188 110.742188 64.628906 C 110.410156 64.765625 110.097656 64.929688 109.796875 65.128906 C 109.496094 65.324219 109.21875 65.546875 108.964844 65.796875 C 108.707031 66.046875 108.476562 66.320312 108.273438 66.613281 C 108.070312 66.90625 107.894531 67.21875 107.75 67.546875 C 107.605469 67.875 107.492188 68.210938 107.414062 68.5625 C 107.335938 68.910156 107.289062 69.265625 107.277344 69.621094 C 107.265625 69.980469 107.289062 70.335938 107.347656 70.691406 C 107.402344 71.042969 107.492188 71.386719 107.617188 71.726562 C 107.738281 72.0625 107.890625 72.382812 108.078125 72.691406 C 108.261719 72.996094 108.472656 73.28125 108.714844 73.546875 C 108.953125 73.816406 109.214844 74.054688 109.503906 74.269531 C 109.789062 74.484375 110.089844 74.671875 110.414062 74.828125 C 110.734375 74.984375 111.070312 75.109375 111.414062 75.203125 C 111.757812 75.296875 112.109375 75.355469 112.46875 75.378906 C 112.828125 75.398438 113.191406 75.378906 113.546875 75.328125 C 113.90625 75.273438 114.257812 75.1875 114.597656 75.066406 C 114.941406 74.945312 115.269531 74.792969 115.582031 74.609375 C 115.890625 74.421875 116.183594 74.210938 116.453125 73.96875 C 116.726562 73.726562 116.96875 73.460938 117.1875 73.171875 C 117.40625 72.882812 117.597656 72.574219 117.753906 72.25 C 117.914062 71.921875 118.039062 71.582031 118.132812 71.234375 C 118.226562 70.882812 118.285156 70.527344 118.308594 70.164062 C 118.332031 69.800781 118.320312 69.441406 118.277344 69.082031 C 118.230469 68.71875 118.148438 68.367188 118.035156 68.023438 C 117.917969 67.679688 117.773438 67.351562 117.59375 67.035156 C 117.414062 66.71875 117.207031 66.421875 116.96875 66.148438 C 116.734375 65.871094 116.472656 65.625 116.1875 65.398438 C 115.902344 65.175781 115.597656 64.980469 115.273438 64.816406 C 114.953125 64.648438 114.617188 64.519531 114.269531 64.417969 C 113.917969 64.320312 113.5625 64.253906 113.203125 64.222656 C 113.078125 64.214844 112.953125 64.210938 112.828125 64.210938 Z M 118.835938 70.199219 Z M 118.835938 70.199219 " fill-opacity="1" fill-rule="nonzero"/><g clip-path="url(#e8ff252de7)"><path fill="#434343" d="M 233.832031 346.597656 C 232.621094 348.882812 219.746094 352.992188 219.445312 360.949219 C 219.429688 361.4375 219.507812 361.90625 219.679688 362.359375 C 219.855469 362.8125 220.105469 363.214844 220.4375 363.570312 C 220.769531 363.921875 221.15625 364.199219 221.601562 364.398438 C 222.042969 364.597656 222.503906 364.703125 222.988281 364.71875 C 232.582031 365.066406 264.0625 365.988281 264.519531 363.226562 C 265.621094 356.632812 263.269531 347.28125 263.148438 345.773438 Z M 233.832031 346.597656 " fill-opacity="1" fill-rule="nonzero"/></g><g clip-path="url(#27da658d99)"><path fill="#434343" d="M 280.890625 346.597656 C 279.691406 348.882812 266.804688 352.992188 266.503906 360.949219 C 266.488281 361.4375 266.570312 361.90625 266.742188 362.359375 C 266.914062 362.8125 267.164062 363.214844 267.496094 363.570312 C 267.828125 363.921875 268.214844 364.199219 268.660156 364.398438 C 269.101562 364.597656 269.5625 364.703125 270.046875 364.71875 C 279.640625 365.066406 311.121094 365.988281 311.582031 363.226562 C 312.679688 356.632812 310.328125 347.28125 310.207031 345.773438 Z M 280.890625 346.597656 " fill-opacity="1" fill-rule="nonzero"/></g><path fill="#efecec" d="M 303.25 161.828125 C 303.25 161.828125 315.175781 307.960938 314.457031 350.226562 L 275.121094 349.148438 L 271.410156 219.074219 L 265.78125 350.226562 L 232.015625 348.066406 L 249.378906 141.644531 Z M 303.25 161.828125 " fill-opacity="1" fill-rule="nonzero"/><path fill="#434343" d="M 272.214844 230.699219 C 272.011719 230.699219 271.835938 230.628906 271.6875 230.492188 C 271.535156 230.351562 271.453125 230.183594 271.4375 229.980469 L 269.875 209.328125 C 269.855469 209.113281 269.917969 208.921875 270.058594 208.757812 C 270.199219 208.59375 270.378906 208.503906 270.59375 208.488281 C 270.808594 208.472656 271 208.535156 271.160156 208.675781 C 271.324219 208.816406 271.414062 208.996094 271.429688 209.210938 L 272.996094 229.859375 C 273.015625 230.074219 272.953125 230.265625 272.8125 230.425781 C 272.671875 230.589844 272.492188 230.679688 272.28125 230.695312 Z M 272.214844 230.699219 " fill-opacity="1" fill-rule="nonzero"/><path fill="#fbc3ac" d="M 261.101562 104.019531 L 266.675781 110.699219 C 266.675781 110.699219 272.136719 113.789062 273.554688 113.226562 C 274.972656 112.664062 281.648438 112.382812 282.257812 109.855469 C 282.632812 108.285156 284.691406 104.382812 286.195312 101.648438 C 286.777344 100.59375 285.851562 99.382812 284.8125 99.382812 C 283.773438 99.382812 282.878906 98.972656 281.804688 98.269531 C 281.171875 97.847656 280.648438 97.316406 280.234375 96.671875 C 279.667969 95.796875 280.261719 92.726562 280.027344 91.1875 C 279.984375 90.910156 279.949219 90.617188 279.921875 90.308594 C 279.894531 90.035156 279.875 89.75 279.863281 89.453125 C 279.863281 89.347656 279.851562 89.242188 279.84375 89.136719 C 279.40625 83.113281 273.253906 86.382812 270.121094 87.816406 C 268.734375 88.449219 266.832031 85.566406 266.78125 85.472656 C 266.820312 85.597656 268.339844 90.292969 267.882812 94.421875 C 267.636719 96.648438 266.8125 98.710938 264.878906 99.804688 C 264.273438 100.152344 262.769531 99.964844 261.976562 100.199219 C 260.554688 100.621094 260.058594 102.773438 261.101562 104.019531 Z M 261.101562 104.019531 " fill-opacity="1" fill-rule="nonzero"/><path fill="#e39882" d="M 267.820312 94.832031 C 267.820312 94.832031 274.320312 98.445312 281.800781 98.269531 C 281.164062 97.847656 280.640625 97.316406 280.230469 96.671875 C 279.660156 95.796875 280.253906 92.726562 280.019531 91.1875 C 279.976562 90.910156 279.941406 90.617188 279.914062 90.308594 C 277.25 90.40625 273.914062 90.542969 273.8125 90.601562 C 273.644531 90.703125 267.820312 94.832031 267.820312 94.832031 Z M 267.820312 94.832031 " fill-opacity="1" fill-rule="nonzero"/><path fill="#fbc3ac" d="M 255.621094 51.5625 C 255.621094 51.5625 250.875 60.527344 252.046875 63.796875 C 253.21875 67.0625 255.589844 73.816406 256.785156 82.503906 C 257.984375 91.1875 266.472656 97.226562 274.277344 95.667969 C 284.277344 93.667969 287.898438 87.824219 289.914062 80.425781 C 289.914062 80.425781 293 83.09375 296.441406 77.378906 C 298.875 73.339844 296.777344 66.3125 292.636719 67.582031 C 289.347656 68.59375 289.796875 69.933594 289.796875 69.933594 C 289.796875 69.933594 287.328125 51.773438 282.304688 51.949219 C 277.277344 52.121094 261.601562 59.675781 255.621094 51.5625 Z M 255.621094 51.5625 " fill-opacity="1" fill-rule="nonzero"/><path fill="#434343" d="M 242.105469 198.964844 C 242.105469 198.964844 279.425781 211.785156 307.671875 200.179688 C 307.792969 177.191406 302.851562 105.125 301.175781 104.589844 C 301.160156 104.589844 300.078125 103.277344 300.0625 103.273438 C 298.792969 102.878906 287.539062 100.074219 284.625 99.253906 C 284.449219 99.203125 284.277344 99.210938 284.109375 99.273438 C 283.9375 99.335938 283.800781 99.441406 283.699219 99.589844 C 278.828125 106.714844 268.773438 111.074219 263.886719 100.316406 C 263.816406 100.15625 263.699219 100.035156 263.539062 99.957031 C 263.378906 99.882812 263.210938 99.867188 263.039062 99.910156 C 259.953125 100.71875 253.632812 101.945312 250.238281 104.046875 C 251.007812 103.566406 243.683594 176.089844 242.105469 198.964844 Z M 242.105469 198.964844 " fill-opacity="1" fill-rule="nonzero"/><path fill="#434343" d="M 265.578125 63.042969 C 265.328125 67.972656 265.023438 74.707031 256.621094 75.675781 L 256.476562 79.15625 C 256.476562 79.15625 246.871094 75.070312 248.171875 64.292969 C 249.476562 53.511719 257.046875 43.550781 263.277344 42.640625 C 267.09375 42.082031 271.347656 46.429688 271.347656 46.429688 C 271.347656 46.429688 274.632812 41.164062 284.183594 47.257812 C 293.523438 53.214844 295.53125 60.410156 294.980469 63.257812 C 293.726562 69.714844 291.101562 73.394531 288.578125 75.921875 L 288.464844 72.457031 C 288.464844 72.457031 286.578125 72.550781 284.421875 72.554688 C 281.054688 72.554688 278.261719 69.832031 278.058594 66.359375 L 277.628906 58.53125 C 277.628906 58.53125 265.898438 56.625 265.578125 63.042969 Z M 265.578125 63.042969 " fill-opacity="1" fill-rule="nonzero"/><path fill="#434343" d="M 258.710938 74.394531 C 258.742188 74.398438 258.773438 74.398438 258.804688 74.394531 C 258.976562 74.386719 263.140625 74.125 265.011719 70.285156 C 265.109375 70.09375 265.121094 69.894531 265.050781 69.691406 C 264.980469 69.484375 264.847656 69.335938 264.65625 69.242188 C 264.460938 69.148438 264.261719 69.136719 264.058594 69.207031 C 263.855469 69.277344 263.707031 69.40625 263.613281 69.601562 C 262.140625 72.625 258.757812 72.835938 258.722656 72.839844 C 258.507812 72.835938 258.324219 72.914062 258.171875 73.0625 C 258.019531 73.214844 257.941406 73.398438 257.9375 73.613281 C 257.9375 73.828125 258.011719 74.011719 258.164062 74.164062 C 258.3125 74.320312 258.496094 74.394531 258.710938 74.398438 Z M 258.710938 74.394531 " fill-opacity="1" fill-rule="nonzero"/><path fill="#434343" d="M 278.863281 72.789062 C 279.417969 72.832031 279.96875 72.8125 280.515625 72.734375 C 280.726562 72.695312 280.894531 72.589844 281.019531 72.414062 C 281.144531 72.238281 281.1875 72.042969 281.148438 71.832031 C 281.113281 71.621094 281.007812 71.453125 280.832031 71.328125 C 280.65625 71.203125 280.460938 71.160156 280.25 71.195312 C 280.105469 71.222656 276.851562 71.734375 274.757812 69.136719 C 274.621094 68.96875 274.449219 68.875 274.234375 68.851562 C 274.019531 68.832031 273.828125 68.886719 273.664062 69.023438 C 273.496094 69.15625 273.402344 69.332031 273.378906 69.546875 C 273.355469 69.761719 273.410156 69.949219 273.546875 70.117188 C 275.191406 72.160156 277.386719 72.691406 278.863281 72.789062 Z M 278.863281 72.789062 " fill-opacity="1" fill-rule="nonzero"/><path fill="#e39882" d="M 270.8125 82.675781 C 271.058594 82.691406 271.253906 82.691406 271.34375 82.691406 C 271.460938 82.6875 271.5625 82.644531 271.644531 82.558594 C 271.730469 82.472656 271.769531 82.367188 271.765625 82.25 C 271.765625 82.128906 271.722656 82.027344 271.636719 81.945312 C 271.550781 81.863281 271.445312 81.820312 271.328125 81.824219 C 270.710938 81.832031 269.679688 81.699219 269.410156 81.378906 C 269.359375 81.324219 269.34375 81.257812 269.367188 81.183594 C 269.605469 79.988281 270.167969 76.796875 270.175781 76.765625 C 270.195312 76.648438 270.171875 76.539062 270.105469 76.441406 C 270.035156 76.34375 269.941406 76.285156 269.824219 76.261719 C 269.707031 76.242188 269.597656 76.265625 269.5 76.335938 C 269.402344 76.402344 269.34375 76.496094 269.324219 76.613281 C 269.324219 76.648438 268.757812 79.828125 268.519531 81.015625 C 268.445312 81.359375 268.519531 81.667969 268.746094 81.9375 C 269.203125 82.476562 270.179688 82.632812 270.8125 82.675781 Z M 270.8125 82.675781 " fill-opacity="1" fill-rule="nonzero"/><path fill="#434343" d="M 275.433594 78.132812 C 277.460938 78.269531 279.222656 77.398438 279.320312 77.351562 C 279.425781 77.296875 279.496094 77.214844 279.53125 77.101562 C 279.570312 76.988281 279.5625 76.878906 279.507812 76.773438 C 279.457031 76.664062 279.371094 76.59375 279.261719 76.554688 C 279.148438 76.515625 279.039062 76.523438 278.929688 76.578125 C 278.898438 76.59375 276.234375 77.898438 273.941406 76.90625 C 273.832031 76.859375 273.722656 76.863281 273.617188 76.90625 C 273.507812 76.949219 273.429688 77.027344 273.382812 77.132812 C 273.335938 77.242188 273.332031 77.347656 273.375 77.457031 C 273.414062 77.566406 273.488281 77.648438 273.59375 77.699219 C 274.183594 77.949219 274.796875 78.09375 275.433594 78.132812 Z M 275.433594 78.132812 " fill-opacity="1" fill-rule="nonzero"/><path fill="#434343" d="M 262.703125 78.101562 C 264.058594 78.160156 265.351562 77.898438 266.582031 77.320312 C 266.6875 77.265625 266.761719 77.183594 266.796875 77.070312 C 266.835938 76.957031 266.828125 76.847656 266.773438 76.742188 C 266.71875 76.632812 266.636719 76.5625 266.523438 76.523438 C 266.410156 76.484375 266.300781 76.492188 266.195312 76.546875 C 266.164062 76.5625 263.496094 77.871094 261.207031 76.875 C 261.097656 76.824219 260.988281 76.824219 260.875 76.867188 C 260.765625 76.914062 260.6875 76.988281 260.636719 77.097656 C 260.589844 77.207031 260.589844 77.316406 260.632812 77.429688 C 260.675781 77.539062 260.75 77.621094 260.859375 77.667969 C 261.449219 77.917969 262.0625 78.066406 262.703125 78.101562 Z M 262.703125 78.101562 " fill-opacity="1" fill-rule="nonzero"/><path fill="#efecec" d="M 274.691406 87.921875 C 274.550781 88.140625 274.351562 88.269531 274.09375 88.304688 L 269.742188 88.84375 C 269.5 88.871094 269.289062 88.804688 269.109375 88.640625 C 268.925781 88.472656 268.820312 88.265625 268.796875 88.015625 L 268.699219 87.066406 C 268.695312 87.027344 268.695312 86.988281 268.699219 86.949219 C 268.691406 86.722656 268.761719 86.523438 268.90625 86.347656 C 269.050781 86.171875 269.234375 86.066406 269.457031 86.027344 L 271.847656 85.722656 L 273.796875 85.484375 C 273.996094 85.464844 274.175781 85.507812 274.339844 85.617188 C 274.507812 85.722656 274.621094 85.867188 274.6875 86.054688 C 274.71875 86.136719 274.738281 86.222656 274.746094 86.308594 L 274.84375 87.261719 C 274.871094 87.5 274.820312 87.722656 274.691406 87.921875 Z M 274.691406 87.921875 " fill-opacity="1" fill-rule="nonzero"/><path fill="#e39882" d="M 274.691406 87.921875 C 273.9375 87.136719 272.828125 87.164062 272.828125 87.164062 C 273.851562 86.992188 274.691406 86.058594 274.691406 86.058594 C 274.71875 86.140625 274.738281 86.226562 274.75 86.316406 L 274.847656 87.265625 C 274.875 87.503906 274.820312 87.722656 274.691406 87.921875 Z M 274.691406 87.921875 " fill-opacity="1" fill-rule="nonzero"/><path fill="#e39882" d="M 270.902344 87.582031 C 270.195312 87.746094 269.597656 88.097656 269.109375 88.636719 C 268.925781 88.46875 268.820312 88.261719 268.796875 88.011719 L 268.699219 87.0625 C 268.695312 87.023438 268.695312 86.984375 268.699219 86.945312 C 268.917969 87.085938 269.882812 87.644531 270.902344 87.582031 Z M 270.902344 87.582031 " fill-opacity="1" fill-rule="nonzero"/><path fill="#434343" d="M 236.175781 128.78125 C 236.175781 128.78125 227.84375 138.855469 227.527344 140.25 C 227.210938 141.644531 227.929688 149.632812 229.996094 151.078125 C 232.0625 152.523438 241.988281 157.898438 245.246094 156.308594 C 248.5 154.722656 253.800781 147.152344 254.777344 145.050781 C 255.757812 142.949219 252.167969 131.402344 252.167969 131.402344 Z M 236.175781 128.78125 " fill-opacity="1" fill-rule="nonzero"/><path fill="#fbc3ac" d="M 250.097656 91.183594 C 245.789062 101.859375 235.0625 127.316406 233.957031 132.679688 C 232.539062 139.582031 234.097656 148.148438 239.320312 149.5 C 246.007812 151.234375 251.277344 141.859375 252.121094 138.132812 C 252.824219 135.027344 257.3125 107.300781 258.828125 97.238281 " fill-opacity="1" fill-rule="nonzero"/><path fill="#fbc3ac" d="M 250.191406 89.839844 C 250.191406 89.839844 249.136719 85.046875 249.628906 79.835938 C 249.917969 76.730469 248.191406 72.75 248.007812 70.457031 C 247.835938 68.191406 250.929688 69.558594 252.289062 72.078125 C 253.097656 73.582031 254.015625 76.476562 254.015625 76.476562 C 254.015625 76.476562 257.042969 70.378906 258.84375 68.335938 C 260.644531 66.296875 264.601562 62.386719 266.070312 63.230469 C 267.542969 64.074219 264.210938 68.253906 263.128906 69.535156 C 262.519531 70.253906 260.734375 72.855469 259.21875 76.265625 C 259.21875 76.265625 263.519531 70.644531 264.777344 69.445312 C 266.035156 68.246094 272.621094 63.988281 273.566406 65.484375 C 274.328125 66.695312 270.054688 70.277344 268.820312 71.257812 C 267.589844 72.238281 263.335938 78.425781 263.335938 78.425781 C 263.335938 78.425781 268.261719 73.722656 268.976562 73.359375 C 269.71875 72.976562 274.8125 69.117188 275.65625 70.984375 C 276.210938 72.214844 272.132812 75.035156 271.390625 75.621094 C 270.652344 76.207031 266.8125 81.296875 266.8125 81.296875 C 266.8125 81.296875 273.730469 76.769531 275.085938 77.914062 C 276.441406 79.058594 272.421875 81.378906 270.964844 82.332031 C 269.511719 83.289062 266.035156 85.726562 266.035156 85.726562 C 266.035156 85.726562 265.121094 90.839844 262.65625 92.792969 C 260.191406 94.75 259.269531 95.898438 259.269531 95.898438 L 257.007812 103.265625 L 247.113281 101.484375 Z M 250.191406 89.839844 " fill-opacity="1" fill-rule="nonzero"/><path fill="#e39882" d="M 259.269531 96.339844 C 259.167969 96.339844 259.078125 96.308594 259 96.242188 C 258.910156 96.167969 258.855469 96.070312 258.84375 95.953125 C 258.828125 95.835938 258.859375 95.726562 258.933594 95.636719 C 258.972656 95.585938 259.914062 94.421875 262.394531 92.460938 C 264.703125 90.628906 265.609375 85.707031 265.617188 85.65625 C 265.636719 85.539062 265.691406 85.445312 265.789062 85.378906 C 265.824219 85.351562 269.289062 82.921875 270.734375 81.976562 L 271.273438 81.632812 C 272.351562 80.9375 274.875 79.339844 274.933594 78.488281 C 274.9375 78.386719 274.898438 78.308594 274.8125 78.253906 C 274.148438 77.691406 270.265625 79.566406 267.054688 81.664062 C 266.964844 81.722656 266.871094 81.746094 266.765625 81.734375 C 266.660156 81.722656 266.570312 81.675781 266.5 81.597656 C 266.425781 81.523438 266.386719 81.429688 266.382812 81.324219 C 266.378906 81.21875 266.40625 81.125 266.472656 81.039062 C 266.867188 80.519531 270.367188 75.894531 271.128906 75.289062 C 271.222656 75.214844 271.371094 75.101562 271.554688 74.964844 C 275.214844 72.226562 275.359375 71.398438 275.265625 71.171875 C 275.21875 71.054688 275.132812 70.980469 275.007812 70.949219 C 273.941406 70.640625 271.046875 72.542969 269.957031 73.261719 C 269.578125 73.507812 269.328125 73.675781 269.179688 73.753906 C 268.699219 73.996094 265.527344 76.945312 263.644531 78.746094 C 263.5625 78.820312 263.46875 78.859375 263.355469 78.863281 C 263.246094 78.867188 263.148438 78.832031 263.0625 78.761719 C 262.980469 78.6875 262.929688 78.597656 262.917969 78.488281 C 262.902344 78.378906 262.925781 78.277344 262.988281 78.1875 C 263.160156 77.929688 267.292969 71.933594 268.5625 70.925781 C 272.011719 68.191406 273.476562 66.144531 273.207031 65.730469 C 273.144531 65.65625 273.066406 65.621094 272.96875 65.625 C 271.320312 65.417969 266.183594 68.722656 265.082031 69.769531 C 263.871094 70.933594 259.613281 76.484375 259.570312 76.542969 C 259.503906 76.628906 259.417969 76.683594 259.308594 76.707031 C 259.199219 76.726562 259.097656 76.710938 259.003906 76.652344 C 258.910156 76.597656 258.847656 76.515625 258.8125 76.410156 C 258.78125 76.304688 258.785156 76.203125 258.832031 76.101562 C 260.460938 72.433594 262.292969 69.867188 262.808594 69.265625 C 264.519531 67.246094 266.171875 64.78125 266.007812 63.835938 C 266 63.738281 265.953125 63.664062 265.867188 63.617188 C 265.035156 63.140625 262.097656 65.351562 259.175781 68.640625 C 257.433594 70.609375 254.445312 76.617188 254.414062 76.679688 C 254.367188 76.792969 254.285156 76.875 254.167969 76.917969 C 254.050781 76.960938 253.9375 76.953125 253.824219 76.898438 C 253.714844 76.84375 253.640625 76.753906 253.601562 76.636719 C 253.566406 76.515625 253.578125 76.402344 253.640625 76.292969 C 253.765625 76.042969 256.710938 70.117188 258.53125 68.066406 C 259.859375 66.566406 264.355469 61.753906 266.296875 62.871094 C 266.617188 63.050781 266.804688 63.324219 266.859375 63.6875 C 267.140625 65.289062 264.582031 68.515625 263.472656 69.828125 C 262.847656 70.621094 262.285156 71.453125 261.777344 72.324219 C 262.851562 70.980469 263.941406 69.667969 264.488281 69.144531 C 265.5 68.179688 270.914062 64.5 273.078125 64.765625 C 273.449219 64.789062 273.738281 64.957031 273.941406 65.269531 C 274.859375 66.71875 271.304688 69.867188 269.097656 71.613281 C 268.578125 72.03125 267.367188 73.582031 266.191406 75.183594 C 267.347656 74.125 268.441406 73.164062 268.789062 72.988281 C 268.894531 72.933594 269.167969 72.753906 269.480469 72.542969 C 271.570312 71.171875 273.910156 69.738281 275.246094 70.121094 C 275.625 70.222656 275.890625 70.453125 276.050781 70.8125 C 276.566406 71.96875 274.839844 73.585938 272.070312 75.664062 C 271.898438 75.792969 271.753906 75.898438 271.664062 75.972656 C 271.292969 76.265625 269.890625 78.015625 268.566406 79.726562 C 269.085938 79.429688 269.65625 79.109375 270.242188 78.800781 C 273.875 76.910156 274.914062 77.207031 275.367188 77.589844 C 275.679688 77.832031 275.820312 78.148438 275.796875 78.542969 C 275.714844 79.734375 273.828125 81.027344 271.738281 82.355469 L 271.207031 82.699219 C 269.941406 83.53125 267.097656 85.515625 266.425781 85.992188 C 266.238281 86.941406 265.253906 91.300781 262.925781 93.144531 C 260.539062 95.039062 259.617188 96.171875 259.609375 96.183594 C 259.519531 96.289062 259.410156 96.339844 259.269531 96.339844 Z M 259.269531 96.339844 " fill-opacity="1" fill-rule="nonzero"/><path fill="#e39882" d="M 254.03125 78.125 C 253.910156 78.125 253.808594 78.082031 253.726562 77.996094 C 253.640625 77.914062 253.597656 77.808594 253.597656 77.691406 L 253.597656 76.476562 C 253.597656 76.359375 253.640625 76.257812 253.726562 76.171875 C 253.808594 76.085938 253.910156 76.046875 254.03125 76.046875 C 254.152344 76.046875 254.253906 76.085938 254.335938 76.171875 C 254.421875 76.257812 254.464844 76.359375 254.464844 76.476562 L 254.464844 77.691406 C 254.464844 77.808594 254.421875 77.914062 254.335938 77.996094 C 254.253906 78.082031 254.152344 78.125 254.03125 78.125 Z M 254.03125 78.125 " fill-opacity="1" fill-rule="nonzero"/><path fill="#e39882" d="M 258.820312 78.125 C 258.78125 78.125 258.742188 78.117188 258.703125 78.105469 C 258.585938 78.074219 258.5 78.003906 258.441406 77.902344 C 258.382812 77.796875 258.371094 77.6875 258.40625 77.574219 L 258.804688 76.15625 C 258.835938 76.039062 258.902344 75.949219 259.007812 75.886719 C 259.113281 75.828125 259.226562 75.8125 259.34375 75.847656 C 259.460938 75.878906 259.546875 75.949219 259.605469 76.058594 C 259.664062 76.164062 259.671875 76.277344 259.636719 76.390625 L 259.238281 77.808594 C 259.175781 78.019531 259.039062 78.125 258.820312 78.125 Z M 258.820312 78.125 " fill-opacity="1" fill-rule="nonzero"/><path fill="#e39882" d="M 262.613281 79.945312 C 262.441406 79.945312 262.3125 79.871094 262.230469 79.71875 C 262.148438 79.5625 262.15625 79.414062 262.253906 79.273438 L 262.980469 78.191406 C 263.046875 78.09375 263.136719 78.03125 263.253906 78.007812 C 263.371094 77.984375 263.480469 78.007812 263.582031 78.074219 C 263.679688 78.140625 263.742188 78.230469 263.761719 78.351562 C 263.785156 78.46875 263.765625 78.574219 263.699219 78.675781 L 262.972656 79.753906 C 262.886719 79.882812 262.765625 79.945312 262.613281 79.945312 Z M 262.613281 79.945312 " fill-opacity="1" fill-rule="nonzero"/><path fill="#fbc3ac" d="M 279.433594 165.160156 C 279.433594 165.160156 261.613281 170.855469 257.683594 164.941406 C 257.683594 164.941406 253.390625 163.484375 254 160.566406 C 254 160.566406 251.5625 159.144531 251.796875 156.792969 C 251.796875 156.792969 249.308594 154.777344 251.050781 152.605469 C 252.792969 150.4375 258.449219 155.617188 267.734375 152.921875 C 267.734375 152.921875 260.613281 153.476562 258.261719 149.355469 C 255.910156 145.234375 262.152344 147.917969 266.5 148.535156 C 270.164062 149.054688 275.066406 150.785156 278.59375 153.640625 C 280.027344 154.800781 281.65625 155.511719 283.484375 155.765625 L 287.339844 156.292969 L 286.179688 165.171875 C 286.179688 165.171875 281.414062 164.535156 279.433594 165.160156 Z M 279.433594 165.160156 " fill-opacity="1" fill-rule="nonzero"/><path fill="#434343" d="M 298.777344 129.65625 C 299.011719 131.269531 296.847656 142.523438 296.847656 142.523438 C 296.847656 142.523438 300.042969 150.960938 300.042969 150.960938 L 325.53125 148.671875 C 325.53125 148.671875 323.109375 137.519531 314.613281 120.160156 C 309.136719 108.976562 303.429688 104.816406 300.0625 103.273438 C 300.0625 103.273438 298.542969 128.039062 298.777344 129.65625 Z M 298.777344 129.65625 " fill-opacity="1" fill-rule="nonzero"/><path fill="#fbc3ac" d="M 322.628906 149.863281 C 323.667969 155.25 324.089844 160.851562 322.390625 164.039062 C 317.375 173.472656 275.695312 164.429688 275.695312 164.429688 L 277.234375 153.53125 L 306.460938 150.394531 Z M 322.628906 149.863281 " fill-opacity="1" fill-rule="nonzero"/><g clip-path="url(#61c495e723)"><path fill="#434343" d="M 304.359375 149.210938 C 304.519531 150.769531 304.941406 152.253906 305.625 153.660156 C 307.941406 158.4375 313.523438 169.542969 315.617188 170.066406 C 316.585938 170.308594 322.984375 168.441406 325.394531 159.972656 C 326.804688 155.011719 326.761719 151.808594 326.480469 150.007812 C 326.394531 149.457031 326.179688 148.957031 325.839844 148.515625 C 325.5 148.070312 325.074219 147.734375 324.5625 147.507812 C 322.214844 146.457031 317.449219 144.53125 314.28125 144.652344 C 311.753906 144.75 308.71875 145.414062 306.625 145.953125 C 306.269531 146.042969 305.945312 146.191406 305.644531 146.398438 C 305.347656 146.605469 305.09375 146.859375 304.886719 147.160156 C 304.675781 147.460938 304.527344 147.785156 304.4375 148.136719 C 304.347656 148.492188 304.320312 148.847656 304.359375 149.210938 Z M 304.359375 149.210938 " fill-opacity="1" fill-rule="nonzero"/></g><path fill="#434343" d="M 303.292969 141.917969 C 303.152344 141.917969 303.023438 141.871094 302.914062 141.78125 C 302.804688 141.691406 302.730469 141.578125 302.703125 141.4375 L 300.78125 132.578125 C 300.746094 132.414062 300.773438 132.261719 300.863281 132.121094 C 300.953125 131.980469 301.082031 131.894531 301.246094 131.855469 C 301.40625 131.820312 301.558594 131.847656 301.699219 131.941406 C 301.839844 132.03125 301.929688 132.15625 301.964844 132.320312 L 303.886719 141.179688 C 303.921875 141.34375 303.894531 141.496094 303.800781 141.636719 C 303.710938 141.777344 303.585938 141.867188 303.421875 141.902344 C 303.378906 141.910156 303.335938 141.917969 303.292969 141.917969 Z M 303.292969 141.917969 " fill-opacity="1" fill-rule="nonzero"/><path fill="#efecec" d="M 222.613281 18.054688 C 223.769531 18.054688 224.917969 18.132812 226.0625 18.296875 C 227.207031 18.460938 228.332031 18.703125 229.441406 19.023438 C 230.550781 19.347656 231.632812 19.746094 232.6875 20.222656 C 233.742188 20.699219 234.753906 21.246094 235.730469 21.863281 C 236.707031 22.484375 237.636719 23.167969 238.515625 23.917969 C 239.394531 24.671875 240.214844 25.480469 240.980469 26.347656 C 241.746094 27.214844 242.445312 28.128906 243.082031 29.097656 C 243.714844 30.0625 244.28125 31.070312 244.773438 32.117188 C 245.265625 33.160156 245.683594 34.238281 246.027344 35.34375 C 246.367188 36.449219 246.628906 37.574219 246.8125 38.714844 C 246.992188 39.855469 247.09375 41.007812 247.113281 42.164062 C 247.136719 43.320312 247.074219 44.472656 246.929688 45.621094 C 246.789062 46.769531 246.566406 47.902344 246.261719 49.019531 C 245.960938 50.132812 245.578125 51.222656 245.121094 52.285156 C 244.667969 53.347656 244.136719 54.375 243.535156 55.363281 C 242.933594 56.351562 242.265625 57.289062 241.53125 58.183594 L 242.789062 64.738281 C 242.8125 64.867188 242.820312 64.996094 242.8125 65.125 C 242.804688 65.257812 242.78125 65.386719 242.742188 65.511719 C 242.703125 65.636719 242.648438 65.753906 242.578125 65.863281 C 242.507812 65.976562 242.425781 66.078125 242.332031 66.167969 C 242.238281 66.257812 242.132812 66.335938 242.019531 66.402344 C 241.90625 66.46875 241.785156 66.515625 241.660156 66.550781 C 241.535156 66.585938 241.40625 66.605469 241.273438 66.609375 C 241.144531 66.609375 241.011719 66.597656 240.886719 66.566406 L 233.148438 64.746094 C 232.683594 64.964844 232.214844 65.171875 231.738281 65.363281 C 231.257812 65.554688 230.777344 65.734375 230.289062 65.894531 C 229.796875 66.054688 229.304688 66.199219 228.808594 66.332031 C 228.308594 66.460938 227.808594 66.574219 227.304688 66.671875 C 226.796875 66.773438 226.289062 66.855469 225.78125 66.921875 C 225.269531 66.988281 224.757812 67.039062 224.246094 67.070312 C 223.730469 67.105469 223.21875 67.125 222.703125 67.125 C 222.1875 67.128906 221.675781 67.113281 221.160156 67.082031 C 220.648438 67.050781 220.136719 67.003906 219.625 66.941406 C 219.113281 66.878906 218.605469 66.800781 218.101562 66.703125 C 217.59375 66.609375 217.09375 66.5 216.59375 66.371094 C 216.097656 66.246094 215.601562 66.101562 215.113281 65.945312 C 214.621094 65.789062 214.136719 65.613281 213.660156 65.425781 C 213.179688 65.238281 212.707031 65.035156 212.242188 64.816406 C 211.777344 64.597656 211.316406 64.367188 210.867188 64.117188 C 210.414062 63.871094 209.972656 63.609375 209.535156 63.335938 C 209.101562 63.0625 208.675781 62.773438 208.257812 62.46875 C 207.839844 62.167969 207.433594 61.855469 207.035156 61.527344 C 206.640625 61.199219 206.253906 60.859375 205.878906 60.507812 C 205.5 60.15625 205.136719 59.792969 204.785156 59.417969 C 204.433594 59.042969 204.089844 58.65625 203.761719 58.261719 C 203.433594 57.863281 203.117188 57.457031 202.816406 57.042969 C 202.511719 56.625 202.222656 56.199219 201.945312 55.765625 C 201.667969 55.332031 201.40625 54.886719 201.160156 54.4375 C 200.910156 53.984375 200.675781 53.527344 200.457031 53.0625 C 200.238281 52.597656 200.03125 52.125 199.84375 51.644531 C 199.652344 51.167969 199.476562 50.683594 199.316406 50.191406 C 199.160156 49.703125 199.015625 49.207031 198.886719 48.710938 C 198.757812 48.210938 198.644531 47.707031 198.546875 47.203125 C 198.453125 46.695312 198.371094 46.1875 198.304688 45.675781 C 198.242188 45.164062 198.191406 44.652344 198.160156 44.140625 C 198.128906 43.625 198.109375 43.109375 198.109375 42.59375 C 198.109375 29.070312 209.113281 18.054688 222.613281 18.054688 Z M 222.613281 18.054688 " fill-opacity="1" fill-rule="nonzero"/><g clip-path="url(#3bf7563ea9)"><path fill="#efecec" d="M 150.84375 8.992188 C 149.691406 8.992188 148.539062 9.074219 147.394531 9.238281 C 146.253906 9.398438 145.125 9.640625 144.015625 9.964844 C 142.90625 10.289062 141.824219 10.6875 140.773438 11.160156 C 139.71875 11.636719 138.703125 12.183594 137.726562 12.804688 C 136.753906 13.421875 135.824219 14.109375 134.945312 14.859375 C 134.066406 15.609375 133.246094 16.417969 132.480469 17.285156 C 131.714844 18.152344 131.015625 19.070312 130.378906 20.035156 C 129.742188 21 129.179688 22.007812 128.6875 23.054688 C 128.195312 24.101562 127.777344 25.175781 127.433594 26.28125 C 127.09375 27.386719 126.832031 28.511719 126.648438 29.652344 C 126.46875 30.796875 126.367188 31.945312 126.347656 33.101562 C 126.324219 34.257812 126.386719 35.410156 126.53125 36.558594 C 126.671875 37.707031 126.894531 38.839844 127.199219 39.953125 C 127.5 41.070312 127.882812 42.160156 128.335938 43.222656 C 128.792969 44.285156 129.324219 45.3125 129.925781 46.300781 C 130.527344 47.285156 131.195312 48.226562 131.929688 49.121094 L 130.671875 55.671875 C 130.648438 55.800781 130.636719 55.929688 130.644531 56.0625 C 130.652344 56.195312 130.679688 56.320312 130.71875 56.445312 C 130.757812 56.570312 130.8125 56.691406 130.882812 56.800781 C 130.949219 56.914062 131.03125 57.015625 131.125 57.105469 C 131.222656 57.195312 131.324219 57.273438 131.4375 57.339844 C 131.554688 57.402344 131.671875 57.453125 131.800781 57.488281 C 131.925781 57.523438 132.054688 57.542969 132.1875 57.542969 C 132.316406 57.546875 132.445312 57.53125 132.574219 57.503906 L 140.308594 55.683594 C 140.773438 55.902344 141.246094 56.109375 141.722656 56.300781 C 142.199219 56.492188 142.683594 56.667969 143.171875 56.832031 C 143.660156 56.992188 144.15625 57.136719 144.652344 57.265625 C 145.152344 57.398438 145.652344 57.511719 146.15625 57.609375 C 146.660156 57.707031 147.167969 57.789062 147.679688 57.855469 C 148.191406 57.921875 148.703125 57.972656 149.214844 58.007812 C 149.730469 58.039062 150.242188 58.058594 150.757812 58.058594 C 151.269531 58.0625 151.785156 58.046875 152.300781 58.015625 C 152.8125 57.984375 153.324219 57.9375 153.835938 57.875 C 154.347656 57.8125 154.855469 57.734375 155.359375 57.636719 C 155.863281 57.542969 156.367188 57.433594 156.867188 57.304688 C 157.363281 57.179688 157.859375 57.035156 158.347656 56.878906 C 158.839844 56.722656 159.324219 56.546875 159.800781 56.359375 C 160.28125 56.171875 160.753906 55.96875 161.21875 55.75 C 161.683594 55.53125 162.144531 55.296875 162.59375 55.050781 C 163.046875 54.804688 163.488281 54.542969 163.925781 54.269531 C 164.359375 53.992188 164.785156 53.703125 165.203125 53.402344 C 165.617188 53.101562 166.027344 52.785156 166.421875 52.457031 C 166.820312 52.128906 167.207031 51.789062 167.582031 51.4375 C 167.957031 51.085938 168.320312 50.722656 168.675781 50.347656 C 169.027344 49.972656 169.367188 49.589844 169.695312 49.191406 C 170.023438 48.796875 170.339844 48.390625 170.644531 47.972656 C 170.945312 47.554688 171.238281 47.132812 171.511719 46.695312 C 171.789062 46.261719 172.050781 45.820312 172.300781 45.367188 C 172.546875 44.917969 172.78125 44.457031 173.003906 43.992188 C 173.222656 43.527344 173.425781 43.054688 173.617188 42.574219 C 173.804688 42.097656 173.980469 41.613281 174.140625 41.125 C 174.300781 40.632812 174.445312 40.140625 174.570312 39.640625 C 174.699219 39.140625 174.8125 38.640625 174.910156 38.132812 C 175.007812 37.628906 175.085938 37.117188 175.152344 36.609375 C 175.21875 36.097656 175.265625 35.585938 175.296875 35.070312 C 175.332031 34.554688 175.347656 34.042969 175.347656 33.527344 C 175.347656 20.011719 164.34375 8.992188 150.84375 8.992188 Z M 150.84375 8.992188 " fill-opacity="1" fill-rule="nonzero"/></g><path fill="#434343" d="M 230.238281 56.640625 C 227.234375 56.640625 224.414062 55.566406 222.292969 54.628906 C 221.558594 54.304688 220.734375 53.917969 219.90625 53.464844 C 218.601562 53.105469 217.339844 52.691406 216.148438 52.277344 C 212.054688 50.863281 208.007812 49.089844 206.140625 45.738281 C 204.238281 42.328125 205.242188 37.703125 208.578125 34.492188 C 209.910156 33.210938 211.308594 32.457031 212.726562 32.253906 C 213.289062 32.175781 213.847656 32.175781 214.410156 32.253906 C 215.792969 31.121094 217.292969 30.167969 218.90625 29.398438 C 219.992188 28.878906 221.613281 28.238281 223.195312 28.683594 C 224.042969 28.921875 224.703125 29.425781 225.234375 29.828125 L 225.660156 30.148438 C 227.671875 29.882812 229.4375 30.101562 230.949219 30.796875 C 232.550781 31.535156 233.902344 32.84375 235.082031 34.78125 C 236.761719 37.535156 237.609375 40.523438 237.617188 43.75 C 237.625 44.652344 237.507812 45.539062 237.273438 46.410156 C 237.300781 46.714844 237.324219 47.019531 237.332031 47.324219 C 237.402344 49.371094 236.933594 50.90625 235.898438 52.019531 C 235.699219 52.234375 235.480469 52.429688 235.238281 52.597656 C 235.015625 54.144531 234.339844 55.292969 233.269531 55.945312 C 232.511719 56.402344 231.539062 56.625 230.269531 56.636719 Z M 226.167969 54.429688 C 227.507812 54.847656 228.878906 55.0625 230.28125 55.082031 C 231.253906 55.082031 231.972656 54.925781 232.480469 54.617188 C 233.003906 54.28125 233.347656 53.816406 233.519531 53.222656 C 232.820312 53.25 232.148438 53.132812 231.496094 52.875 C 231.140625 53.238281 230.730469 53.539062 230.273438 53.769531 C 229.46875 54.171875 228.574219 54.289062 227.886719 54.363281 C 227.3125 54.410156 226.742188 54.433594 226.167969 54.429688 Z M 220.488281 52.003906 C 222.824219 52.628906 225.292969 53.03125 227.742188 52.800781 C 228.296875 52.75 229.007812 52.652344 229.585938 52.363281 C 229.703125 52.308594 229.820312 52.242188 229.929688 52.164062 L 225.40625 50.003906 C 224.992188 49.875 224.585938 49.742188 224.179688 49.609375 C 223.675781 49.445312 223.152344 49.277344 222.640625 49.121094 C 222.164062 48.976562 221.675781 48.839844 221.1875 48.710938 C 220.8125 49.035156 220.40625 49.316406 219.964844 49.554688 C 219.335938 49.886719 218.679688 50.140625 217.992188 50.320312 C 218.773438 50.960938 219.605469 51.519531 220.488281 52.003906 Z M 232.496094 51.550781 C 232.917969 51.683594 233.347656 51.703125 233.78125 51.605469 C 233.796875 51.1875 233.785156 50.769531 233.75 50.355469 C 233.492188 50.457031 233.230469 50.542969 232.964844 50.613281 C 232.828125 50.9375 232.671875 51.25 232.496094 51.554688 Z M 230.9375 50.925781 L 231.027344 50.964844 C 231.035156 50.949219 231.046875 50.933594 231.054688 50.917969 Z M 212.699219 33.839844 C 211.6875 34.050781 210.664062 34.648438 209.65625 35.617188 C 206.832031 38.335938 205.945312 42.1875 207.5 44.96875 C 208.902344 47.488281 211.917969 49.039062 215.183594 50.265625 C 215.15625 50.207031 215.136719 50.140625 215.128906 50.074219 C 215.105469 49.929688 215.121094 49.789062 215.179688 49.652344 C 214.921875 49.316406 214.691406 48.964844 214.484375 48.59375 C 214.058594 47.828125 213.765625 47.011719 213.609375 46.148438 C 213.367188 45.996094 213.152344 45.820312 212.957031 45.613281 C 212.878906 45.53125 212.804688 45.441406 212.734375 45.351562 C 211.582031 44.484375 210.496094 43.296875 210.015625 41.75 C 209.246094 39.304688 210.226562 36.445312 212.699219 33.839844 Z M 235.226562 49.542969 C 235.257812 49.769531 235.28125 49.992188 235.300781 50.214844 C 235.464844 49.882812 235.582031 49.539062 235.65625 49.175781 L 235.570312 49.253906 C 235.460938 49.359375 235.347656 49.453125 235.226562 49.542969 Z M 225.964844 48.550781 C 226.996094 48.886719 228.050781 49.136719 229.125 49.292969 C 230.015625 49.414062 230.90625 49.40625 231.796875 49.273438 C 232.15625 48.085938 232.234375 46.835938 232.253906 45.695312 C 232.253906 45.566406 232.253906 45.441406 232.253906 45.316406 C 231.519531 43.863281 230.652344 42.5 229.648438 41.222656 L 229.621094 41.191406 C 229.644531 42.289062 229.429688 43.203125 228.96875 43.972656 C 227.972656 45.644531 225.84375 46.648438 222.640625 46.964844 Z M 215.414062 46.902344 C 215.53125 47.230469 215.671875 47.542969 215.839844 47.84375 C 216.078125 48.265625 216.351562 48.664062 216.664062 49.03125 C 217.554688 48.875 218.40625 48.589844 219.214844 48.183594 C 217.917969 47.847656 216.652344 47.421875 215.417969 46.90625 Z M 233.804688 44.957031 C 234.238281 45.863281 234.589844 46.804688 234.855469 47.773438 C 235.238281 47.332031 235.523438 46.835938 235.703125 46.28125 C 235.394531 43.898438 234.542969 41.730469 233.148438 39.777344 C 233.589844 41.476562 233.8125 43.203125 233.8125 44.957031 Z M 215.296875 42.707031 C 216.316406 43.839844 217.933594 44.707031 219.667969 45.539062 C 220.332031 45.539062 220.996094 45.515625 221.65625 45.472656 C 222.066406 44.519531 222.210938 43.527344 222.09375 42.496094 C 221.902344 40.839844 221.085938 39.148438 219.671875 37.457031 L 219.597656 37.46875 C 218.53125 38.089844 217.601562 38.875 216.816406 39.824219 C 216.109375 40.679688 215.601562 41.640625 215.300781 42.710938 Z M 215.601562 45.269531 C 215.761719 45.304688 215.925781 45.335938 216.089844 45.359375 C 215.71875 45.121094 215.367188 44.859375 215.027344 44.582031 C 215.027344 44.71875 215.027344 44.851562 215.035156 44.984375 C 215.222656 45.085938 215.410156 45.183594 215.605469 45.273438 Z M 221.492188 37.265625 C 222.726562 38.933594 223.445312 40.625 223.640625 42.316406 C 223.753906 43.328125 223.667969 44.320312 223.371094 45.296875 C 225.535156 44.964844 227.003906 44.238281 227.636719 43.167969 C 227.980469 42.589844 228.117188 41.847656 228.050781 40.898438 C 228.023438 40.53125 227.96875 40.164062 227.878906 39.804688 C 226.519531 40.828125 224.3125 40.414062 223.15625 39.304688 C 222.570312 38.730469 222.160156 38.050781 221.929688 37.261719 C 221.789062 37.261719 221.644531 37.265625 221.496094 37.269531 Z M 213.605469 43.066406 L 213.605469 43.144531 L 213.613281 43.082031 Z M 214.839844 33.933594 C 214.636719 34.113281 214.441406 34.300781 214.246094 34.488281 C 213.121094 35.574219 210.605469 38.414062 211.5 41.285156 C 211.636719 41.707031 211.828125 42.101562 212.082031 42.46875 C 212.167969 41.785156 212.363281 41.132812 212.667969 40.515625 C 212.53125 38.820312 213.207031 36.988281 214.582031 35.472656 C 214.964844 35.050781 215.382812 34.664062 215.828125 34.308594 C 215.507812 34.15625 215.179688 34.03125 214.839844 33.933594 Z M 228.972656 38.140625 C 229.671875 38.789062 230.304688 39.5 230.875 40.265625 C 231.277344 40.78125 231.648438 41.292969 231.992188 41.804688 C 231.683594 39.882812 231.09375 38.242188 230.210938 36.839844 C 230.148438 36.738281 230.085938 36.636719 230.015625 36.535156 C 229.632812 36.273438 229.222656 36.058594 228.785156 35.902344 C 228.917969 36.46875 229.066406 37.265625 228.929688 38.050781 C 228.949219 38.09375 228.960938 38.117188 228.972656 38.144531 Z M 231.144531 35.417969 C 231.617188 35.769531 232.0625 36.152344 232.476562 36.566406 C 233.898438 37.972656 235.035156 39.578125 235.886719 41.390625 C 235.558594 39.316406 234.847656 37.386719 233.757812 35.59375 C 232.746094 33.917969 231.617188 32.820312 230.308594 32.207031 C 229.410156 31.808594 228.472656 31.601562 227.488281 31.59375 C 228.847656 32.738281 230.132812 33.988281 231.144531 35.425781 Z M 214.277344 40.789062 L 214.304688 40.90625 C 214.398438 40.695312 214.503906 40.492188 214.617188 40.289062 C 214.496094 40.453125 214.382812 40.621094 214.277344 40.796875 Z M 223.667969 37.398438 C 223.8125 37.695312 224.003906 37.960938 224.242188 38.191406 C 224.90625 38.828125 226.261719 39.105469 226.960938 38.5625 C 226.855469 38.492188 226.746094 38.425781 226.636719 38.363281 C 225.703125 37.855469 224.714844 37.535156 223.667969 37.398438 Z M 217.265625 35.167969 C 216.707031 35.566406 216.191406 36.015625 215.726562 36.519531 C 215.328125 36.953125 214.996094 37.4375 214.726562 37.964844 C 214.996094 37.75 215.277344 37.550781 215.570312 37.367188 C 216.460938 36.820312 217.414062 36.417969 218.425781 36.15625 C 218.0625 35.800781 217.679688 35.46875 217.273438 35.164062 Z M 223.894531 35.863281 C 224.523438 35.957031 225.144531 36.097656 225.75 36.292969 C 225.484375 36.070312 225.199219 35.871094 224.898438 35.699219 C 224.566406 35.730469 224.230469 35.785156 223.898438 35.851562 Z M 218.675781 34.28125 C 219.023438 34.570312 219.394531 34.898438 219.761719 35.269531 C 219.839844 35.347656 219.917969 35.429688 219.996094 35.507812 C 220.515625 35.265625 221.046875 35.050781 221.589844 34.867188 C 221.609375 34.621094 221.6875 34.394531 221.824219 34.191406 C 222.257812 33.558594 223.128906 33.367188 224.160156 33.683594 C 224.515625 33.792969 224.863281 33.925781 225.199219 34.085938 L 225.304688 34.085938 C 226.183594 33.992188 227.066406 34.003906 227.945312 34.121094 C 227.085938 33.300781 226.1875 32.527344 225.242188 31.804688 C 223.777344 32.09375 222.363281 32.542969 221 33.15625 C 220.207031 33.492188 219.433594 33.867188 218.675781 34.28125 Z M 216.273438 32.789062 C 216.617188 32.9375 216.953125 33.105469 217.273438 33.296875 C 218.273438 32.695312 219.3125 32.171875 220.386719 31.71875 C 221.433594 31.257812 222.507812 30.878906 223.605469 30.574219 C 223.351562 30.40625 223.078125 30.277344 222.789062 30.191406 C 221.710938 29.886719 220.449219 30.398438 219.59375 30.808594 C 218.425781 31.363281 217.320312 32.023438 216.273438 32.78125 Z M 216.273438 32.789062 " fill-opacity="1" fill-rule="nonzero"/><path fill="#434343" d="M 169.664062 47.21875 C 167.898438 47.21875 166.746094 47.148438 166.558594 47.136719 C 160.601562 46.9375 153.191406 46.691406 147.261719 42.980469 C 144.132812 41.035156 141.957031 38.3125 141.140625 35.320312 C 140.101562 31.355469 140.660156 27.023438 142.597656 24.007812 C 142.601562 24 142.605469 23.992188 142.609375 23.984375 C 144.179688 21.695312 146.699219 20.148438 149.703125 19.625 C 152.988281 19.054688 156.484375 19.8125 159.03125 21.65625 C 163.074219 24.488281 165.28125 30 164.265625 34.761719 C 163.703125 37.320312 162.027344 39.082031 159.421875 39.867188 C 157.496094 40.449219 155 40.488281 152.394531 39.984375 C 149.628906 39.445312 147.535156 37.617188 146.804688 35.097656 C 145.765625 31.785156 146.449219 27.824219 149.757812 26.695312 C 151.332031 26.140625 153.296875 26.371094 154.648438 27.265625 C 155.109375 27.546875 155.484375 27.914062 155.777344 28.367188 C 156.066406 28.820312 156.242188 29.316406 156.304688 29.851562 C 156.351562 30.300781 156.289062 30.734375 156.125 31.15625 C 155.957031 31.574219 155.703125 31.933594 155.363281 32.230469 C 154.195312 33.269531 152.605469 33.269531 151.328125 33.25 L 151.167969 33.25 C 150.953125 33.25 150.769531 33.175781 150.617188 33.023438 C 150.464844 32.871094 150.390625 32.6875 150.390625 32.472656 C 150.390625 32.257812 150.464844 32.074219 150.617188 31.921875 C 150.769531 31.769531 150.953125 31.691406 151.167969 31.691406 L 151.339844 31.691406 C 152.457031 31.691406 153.609375 31.707031 154.332031 31.0625 C 154.664062 30.785156 154.804688 30.429688 154.753906 29.996094 C 154.675781 29.378906 154.371094 28.910156 153.835938 28.59375 C 153.824219 28.585938 153.8125 28.582031 153.800781 28.574219 C 152.851562 27.9375 151.398438 27.773438 150.269531 28.167969 C 148.8125 28.667969 147.09375 30.800781 148.296875 34.648438 C 148.875 36.640625 150.476562 38.023438 152.691406 38.460938 C 154.757812 38.859375 161.578125 39.753906 162.746094 34.4375 C 163.632812 30.269531 161.691406 25.433594 158.128906 22.933594 C 155.90625 21.324219 152.859375 20.667969 149.972656 21.167969 C 147.375 21.617188 145.226562 22.929688 143.894531 24.867188 C 142.21875 27.484375 141.726562 31.433594 142.640625 34.925781 C 143.351562 37.523438 145.285156 39.914062 148.082031 41.65625 C 153.664062 45.152344 160.847656 45.394531 166.617188 45.582031 L 166.644531 45.582031 C 166.753906 45.582031 177.714844 46.261719 186.679688 43.265625 C 190.128906 42.117188 193.882812 40.160156 197.515625 38.273438 C 203.792969 35.003906 209.722656 31.917969 214.695312 32.308594 C 214.910156 32.324219 215.089844 32.414062 215.230469 32.582031 C 215.371094 32.746094 215.429688 32.933594 215.414062 33.148438 C 215.398438 33.363281 215.308594 33.542969 215.144531 33.683594 C 214.980469 33.824219 214.789062 33.882812 214.574219 33.867188 C 210.046875 33.511719 204.039062 36.636719 198.230469 39.660156 C 194.546875 41.578125 190.738281 43.5625 187.175781 44.75 C 180.808594 46.871094 173.65625 47.21875 169.664062 47.21875 Z M 169.664062 47.21875 " fill-opacity="1" fill-rule="nonzero"/><path fill="#efecec" d="M 114.363281 173.539062 L 149.386719 173.539062 C 150.125 173.539062 150.839844 173.421875 151.539062 173.179688 C 152.238281 172.9375 152.875 172.589844 153.457031 172.136719 C 154.039062 171.679688 154.53125 171.144531 154.933594 170.523438 C 155.332031 169.902344 155.625 169.234375 155.800781 168.519531 L 170.1875 110.898438 C 170.3125 110.410156 170.375 109.914062 170.386719 109.410156 C 170.394531 108.90625 170.347656 108.410156 170.242188 107.917969 C 170.136719 107.425781 169.980469 106.949219 169.765625 106.496094 C 169.554688 106.039062 169.292969 105.613281 168.984375 105.214844 C 168.675781 104.820312 168.328125 104.460938 167.9375 104.144531 C 167.546875 103.828125 167.125 103.558594 166.671875 103.339844 C 166.222656 103.117188 165.75 102.953125 165.261719 102.839844 C 164.769531 102.726562 164.273438 102.667969 163.773438 102.667969 L 128.75 102.667969 C 128.011719 102.667969 127.292969 102.789062 126.59375 103.03125 C 125.898438 103.269531 125.257812 103.617188 124.675781 104.074219 C 124.09375 104.527344 123.605469 105.066406 123.203125 105.6875 C 122.800781 106.304688 122.511719 106.976562 122.332031 107.691406 L 107.945312 165.320312 C 107.824219 165.808594 107.757812 166.304688 107.75 166.804688 C 107.742188 167.308594 107.789062 167.804688 107.894531 168.296875 C 108 168.789062 108.15625 169.261719 108.371094 169.71875 C 108.582031 170.175781 108.84375 170.601562 109.152344 170.996094 C 109.460938 171.394531 109.8125 171.75 110.203125 172.066406 C 110.59375 172.382812 111.011719 172.648438 111.464844 172.871094 C 111.914062 173.089844 112.386719 173.257812 112.875 173.371094 C 113.363281 173.484375 113.859375 173.539062 114.363281 173.539062 Z M 114.363281 173.539062 " fill-opacity="1" fill-rule="nonzero"/><path fill="#fbc3ac" d="M 112.257812 148.058594 C 111.867188 147.933594 111.640625 147.851562 111.640625 147.851562 C 120.265625 153.355469 127.554688 149.78125 128.671875 152.5 C 129.789062 155.222656 126.675781 156.535156 126.675781 156.535156 C 126.214844 158.988281 123.316406 159.710938 123.316406 159.710938 C 123.066406 162.855469 118.273438 163.054688 118.273438 163.054688 C 112.535156 167.894531 96.132812 156.796875 96.132812 156.796875 C 94.308594 155.566406 89.277344 154.800781 89.277344 154.800781 L 90.539062 146.699219 L 94.808594 146.046875 C 96.738281 146.332031 98.605469 146.097656 100.410156 145.34375 C 104.519531 143.636719 109.558594 143.25 113.363281 143.65625 Z M 112.257812 148.058594 " fill-opacity="1" fill-rule="nonzero"/></svg>