<svg xmlns="http://www.w3.org/2000/svg" xmlns:xlink="http://www.w3.org/1999/xlink" width="500" zoomAndPan="magnify" viewBox="0 0 375 374.999991" height="500" preserveAspectRatio="xMidYMid meet" version="1.0"><defs><clipPath id="e7b3005fc2"><path d="M 301 126 L 331.535156 126 L 331.535156 157 L 301 157 Z M 301 126 " clip-rule="nonzero"/></clipPath><clipPath id="d12add1b01"><path d="M 164 14.308594 L 173 14.308594 L 173 26 L 164 26 Z M 164 14.308594 " clip-rule="nonzero"/></clipPath><clipPath id="e186c2ce11"><path d="M 43.535156 161 L 64 161 L 64 183 L 43.535156 183 Z M 43.535156 161 " clip-rule="nonzero"/></clipPath></defs><path fill="#000000" d="M 236.304688 221.945312 C 239.042969 222.550781 246.703125 223.609375 252.027344 218.328125 C 251.964844 217.117188 251.941406 216.253906 251.941406 216.253906 L 239.59375 216.222656 L 236.0625 218.191406 C 236.046875 218.210938 236.238281 219.925781 236.304688 221.945312 Z M 236.304688 221.945312 " fill-opacity="1" fill-rule="evenodd"/><path fill="#fe9f3a" d="M 229.96875 266.988281 C 229.96875 266.988281 230.007812 258.445312 233.472656 250.546875 C 235.621094 245.691406 239.070312 241.019531 244.984375 239.203125 C 252.378906 236.941406 258.664062 240.203125 263.109375 243.875 C 267.855469 247.804688 270.65625 252.328125 270.65625 252.328125 C 271.636719 253.902344 273.695312 254.402344 275.269531 253.421875 C 276.84375 252.457031 277.34375 250.378906 276.363281 248.804688 C 272.914062 244.152344 268.984375 239.722656 263.648438 235.976562 C 258.050781 232.453125 250.988281 230.324219 243.015625 232.769531 C 235.085938 235.199219 230.210938 241.296875 227.316406 247.820312 C 223.277344 257.015625 223.242188 266.953125 223.242188 266.953125 C 223.242188 268.804688 224.742188 270.308594 226.59375 270.324219 C 228.449219 270.34375 229.953125 268.84375 229.96875 266.988281 Z M 229.96875 266.988281 " fill-opacity="1" fill-rule="evenodd"/><path fill="#000000" d="M 263.777344 235.792969 C 258.144531 232.230469 251.007812 230.082031 242.945312 232.546875 C 234.9375 235.011719 230.027344 241.148438 227.117188 247.730469 C 223.058594 256.960938 223 266.933594 223 266.953125 C 223 268.9375 224.613281 270.566406 226.597656 270.566406 C 226.726562 270.566406 226.839844 270.457031 226.839844 270.324219 C 226.855469 270.195312 226.726562 270.085938 226.597656 270.085938 C 224.871094 270.085938 223.484375 268.675781 223.484375 266.953125 C 223.484375 266.953125 223.519531 257.070312 227.542969 247.933594 C 230.394531 241.464844 235.195312 235.421875 243.074219 233.011719 C 251.007812 230.582031 257.976562 232.695312 263.519531 236.199219 C 263.648438 236.273438 263.796875 236.234375 263.851562 236.125 C 263.925781 236.015625 263.890625 235.867188 263.777344 235.792969 Z M 263.777344 235.792969 " fill-opacity="1" fill-rule="evenodd"/><path fill="#fec184" d="M 235.730469 269.144531 C 234.300781 265.179688 229.925781 263.132812 225.953125 264.566406 C 222.8125 265.703125 219.144531 267.027344 215.988281 268.164062 C 212.03125 269.59375 209.972656 273.960938 211.402344 277.925781 C 215.269531 288.636719 222.496094 308.667969 226.359375 319.378906 C 227.792969 323.34375 232.152344 325.394531 236.121094 323.960938 C 239.265625 322.828125 242.933594 321.503906 246.089844 320.363281 C 250.046875 318.9375 252.121094 314.5625 250.6875 310.597656 C 246.824219 299.886719 239.59375 279.855469 235.730469 269.144531 Z M 235.730469 269.144531 " fill-opacity="1" fill-rule="evenodd"/><path fill="#ffb7e7" d="M 179.03125 297.027344 L 185.445312 310.433594 L 201.222656 305.023438 L 201.976562 299.363281 L 197.796875 289.839844 L 184.25 290.84375 Z M 179.03125 297.027344 " fill-opacity="1" fill-rule="evenodd"/><path fill="#3471d2" d="M 176.605469 163.136719 L 164.414062 158.972656 L 153.203125 161.167969 C 153.203125 161.167969 120.121094 183.21875 113.269531 198.277344 C 106.417969 213.335938 114.023438 224.054688 125.183594 231.839844 C 136.339844 239.605469 144.226562 245.070312 144.226562 245.070312 C 144.226562 245.070312 146.160156 252.34375 155.347656 252.097656 C 155.347656 252.097656 157.070312 254.066406 159.617188 255.367188 C 159.144531 236.019531 156.4375 222.542969 155.226562 217.429688 C 152.203125 215.003906 148.902344 212.632812 145.894531 211.121094 L 146.175781 209.066406 C 146.175781 209.066406 150.304688 207.890625 150.515625 204.972656 L 161.375 197.503906 Z M 176.605469 163.136719 " fill-opacity="1" fill-rule="evenodd"/><path fill="#1b3e77" d="M 155.242188 217.40625 C 156.4375 222.519531 159.160156 235.996094 159.636719 255.34375 C 161.375 256.257812 163.5 256.855469 165.714844 256.308594 L 165.167969 226.296875 C 165.167969 226.296875 160.671875 221.765625 155.242188 217.40625 Z M 155.242188 217.40625 " fill-opacity="1" fill-rule="evenodd"/><path fill="#1b3e77" d="M 176.609375 163.128906 L 161.375 197.480469 L 172.445312 189.875 L 182.335938 170.933594 L 178.382812 163.726562 Z M 176.609375 163.128906 " fill-opacity="1" fill-rule="evenodd"/><path fill="#3471d2" d="M 176.113281 169.003906 C 176.113281 169.003906 162.726562 218.292969 162.445312 229.078125 C 162.128906 239.867188 160.847656 252.273438 168.769531 276.03125 C 168.769531 276.03125 167.734375 285.90625 171.652344 289.769531 C 171.652344 289.769531 171.597656 298.222656 178.363281 299.277344 C 185.144531 300.347656 209.777344 291.261719 200.976562 285.324219 C 200.976562 285.324219 204.261719 279.648438 200.238281 277.785156 C 200.238281 277.785156 200.800781 256.457031 194.476562 243.207031 C 194.476562 243.207031 198.480469 240.203125 195.441406 236.511719 C 195.441406 236.511719 203.839844 223.757812 199.269531 218.589844 C 199.269531 218.589844 205.738281 205.480469 207.6875 191.601562 L 211.375 175.734375 L 190.75 167.035156 Z M 176.113281 169.003906 " fill-opacity="1" fill-rule="evenodd"/><path fill="#1b3e77" d="M 150.199219 164.695312 C 150.199219 164.695312 159.039062 176.378906 163.710938 175.816406 C 166.03125 175.554688 167.753906 170.351562 167.753906 170.351562 C 167.753906 170.351562 169.84375 174.394531 176.609375 173.550781 C 176.609375 173.550781 182.054688 180.648438 190.1875 178.539062 C 190.1875 178.539062 196.355469 183.265625 200.238281 181.070312 L 200.238281 180.703125 C 200.238281 180.703125 194.773438 180.140625 190.910156 175.886719 C 190.910156 175.886719 182.246094 177.46875 177.398438 170.632812 C 177.398438 170.632812 169.613281 170.125 165.714844 165.996094 Z M 150.199219 164.695312 " fill-opacity="1" fill-rule="evenodd"/><g clip-path="url(#e7b3005fc2)"><path fill="#019cef" d="M 331.535156 141.804688 C 331.535156 142.796875 331.4375 143.78125 331.242188 144.753906 C 331.050781 145.726562 330.761719 146.671875 330.382812 147.585938 C 330.003906 148.503906 329.539062 149.375 328.988281 150.199219 C 328.4375 151.023438 327.808594 151.789062 327.109375 152.492188 C 326.40625 153.191406 325.644531 153.816406 324.820312 154.371094 C 323.992188 154.921875 323.121094 155.386719 322.207031 155.765625 C 321.289062 156.144531 320.34375 156.433594 319.371094 156.625 C 318.398438 156.820312 317.417969 156.917969 316.425781 156.917969 C 315.429688 156.917969 314.449219 156.820312 313.476562 156.625 C 312.503906 156.433594 311.558594 156.144531 310.640625 155.765625 C 309.722656 155.386719 308.855469 154.921875 308.03125 154.371094 C 307.203125 153.816406 306.441406 153.191406 305.738281 152.492188 C 305.039062 151.789062 304.410156 151.023438 303.859375 150.199219 C 303.308594 149.375 302.84375 148.503906 302.464844 147.585938 C 302.085938 146.671875 301.796875 145.726562 301.605469 144.753906 C 301.410156 143.78125 301.316406 142.796875 301.316406 141.804688 C 301.316406 140.8125 301.410156 139.832031 301.605469 138.855469 C 301.796875 137.882812 302.085938 136.9375 302.464844 136.023438 C 302.84375 135.105469 303.308594 134.234375 303.859375 133.410156 C 304.410156 132.585938 305.039062 131.820312 305.738281 131.121094 C 306.441406 130.417969 307.203125 129.792969 308.027344 129.242188 C 308.851562 128.691406 309.722656 128.222656 310.640625 127.84375 C 311.558594 127.464844 312.503906 127.179688 313.476562 126.984375 C 314.449219 126.789062 315.429688 126.695312 316.425781 126.695312 C 317.417969 126.695312 318.398438 126.789062 319.371094 126.984375 C 320.34375 127.179688 321.289062 127.464844 322.207031 127.84375 C 323.121094 128.222656 323.992188 128.691406 324.820312 129.242188 C 325.644531 129.792969 326.40625 130.417969 327.109375 131.121094 C 327.808594 131.820312 328.4375 132.585938 328.988281 133.410156 C 329.539062 134.234375 330.003906 135.105469 330.382812 136.023438 C 330.761719 136.9375 331.050781 137.882812 331.242188 138.855469 C 331.4375 139.832031 331.535156 140.8125 331.535156 141.804688 Z M 331.535156 141.804688 " fill-opacity="1" fill-rule="nonzero"/></g><path fill="#ffb7e7" d="M 161.394531 36.484375 C 161.394531 36.484375 162.199219 32.988281 161.515625 29.894531 C 160.832031 26.800781 162.164062 19.421875 165.835938 16.910156 L 180.507812 25.625 L 178.082031 36.800781 L 170.828125 41.175781 Z M 161.394531 36.484375 " fill-opacity="1" fill-rule="evenodd"/><g clip-path="url(#d12add1b01)"><path fill="#ffb7e7" d="M 172.621094 17.347656 C 172.621094 17.347656 171.179688 21.53125 170.335938 23.992188 C 170.195312 24.449219 169.84375 24.800781 169.402344 24.992188 C 168.964844 25.167969 168.472656 25.167969 168.035156 24.957031 C 167.3125 24.625 166.488281 24.238281 165.855469 23.921875 C 165.1875 23.605469 164.800781 22.867188 164.921875 22.109375 C 165.222656 20.476562 165.730469 17.648438 166.011719 16.136719 C 166.136719 15.46875 166.664062 14.925781 167.3125 14.785156 C 168.910156 14.433594 171.722656 14.308594 172.621094 17.347656 Z M 172.621094 17.347656 " fill-opacity="1" fill-rule="evenodd"/></g><path fill="#ffb7e7" d="M 172.621094 17.347656 C 172.621094 17.347656 177.308594 16.226562 178.363281 19.863281 C 178.363281 19.863281 176.464844 25.167969 175.941406 26.660156 C 175.851562 26.90625 175.625 27.117188 175.359375 27.1875 C 172.460938 27.996094 170.808594 26.941406 170.105469 24.449219 Z M 172.621094 17.347656 " fill-opacity="1" fill-rule="evenodd"/><path fill="#ffb7e7" d="M 178.363281 19.863281 C 178.363281 19.863281 182.089844 19.230469 183.335938 22.214844 C 183.511719 22.636719 183.496094 23.113281 183.285156 23.515625 C 182.667969 24.78125 181.121094 27.925781 180.402344 29.351562 C 180.175781 29.824219 179.664062 30.089844 179.136719 30.019531 C 177.90625 29.84375 175.835938 29.210938 175.695312 26.996094 Z M 178.363281 19.863281 " fill-opacity="1" fill-rule="evenodd"/><path fill="#000000" d="M 165.484375 17.871094 C 165.484375 17.871094 164.660156 21.84375 164.75 22.84375 C 164.78125 23.175781 165.046875 23.582031 165.46875 23.933594 C 166.347656 24.6875 167.894531 25.355469 168.578125 25.355469 C 168.859375 25.355469 169.140625 25.25 169.402344 25.058594 C 169.753906 24.8125 170.070312 24.390625 170.386719 23.878906 C 171.511719 22 172.265625 18.890625 172.265625 18.890625 C 172.300781 18.765625 172.230469 18.644531 172.089844 18.609375 C 171.96875 18.574219 171.84375 18.660156 171.8125 18.785156 C 171.8125 18.785156 171.074219 21.824219 169.984375 23.652344 C 169.753906 24.019531 169.527344 24.355469 169.261719 24.582031 C 169.035156 24.777344 168.824219 24.898438 168.578125 24.898438 C 168.03125 24.898438 166.945312 24.441406 166.152344 23.878906 C 165.835938 23.652344 165.554688 23.421875 165.398438 23.195312 C 165.292969 23.074219 165.238281 22.949219 165.222656 22.828125 C 165.152344 21.84375 165.960938 17.976562 165.960938 17.976562 C 165.976562 17.855469 165.90625 17.730469 165.785156 17.714844 C 165.625 17.660156 165.503906 17.75 165.484375 17.871094 Z M 165.484375 17.871094 " fill-opacity="1" fill-rule="evenodd"/><path fill="#000000" d="M 169.964844 23.722656 C 169.964844 23.722656 169.914062 25.671875 171.300781 26.691406 C 172.128906 27.308594 173.25 27.625 174.234375 27.519531 C 174.921875 27.449219 175.535156 27.183594 175.957031 26.691406 C 175.976562 26.675781 175.992188 26.65625 176.011719 26.621094 L 177.976562 21.226562 C 178.03125 21.105469 177.960938 20.980469 177.835938 20.929688 C 177.714844 20.894531 177.589844 20.945312 177.539062 21.070312 L 175.570312 26.429688 C 175.238281 26.816406 174.746094 27.007812 174.199219 27.0625 C 173.320312 27.148438 172.300781 26.867188 171.582031 26.324219 C 170.386719 25.425781 170.441406 23.722656 170.441406 23.722656 C 170.441406 23.597656 170.351562 23.492188 170.210938 23.492188 C 170.054688 23.492188 169.964844 23.597656 169.964844 23.722656 Z M 169.964844 23.722656 " fill-opacity="1" fill-rule="evenodd"/><path fill="#000000" d="M 175.519531 26.570312 C 175.519531 26.570312 175.535156 28.519531 176.835938 29.398438 C 178.117188 30.277344 179.277344 30.171875 179.277344 30.171875 C 179.402344 30.152344 179.507812 30.046875 179.488281 29.925781 C 179.472656 29.800781 179.367188 29.695312 179.242188 29.714844 C 179.242188 29.714844 178.222656 29.785156 177.082031 29.027344 C 175.972656 28.273438 175.972656 26.570312 175.972656 26.570312 C 175.972656 26.445312 175.867188 26.339844 175.746094 26.339844 C 175.625 26.339844 175.519531 26.445312 175.519531 26.570312 Z M 175.519531 26.570312 " fill-opacity="1" fill-rule="evenodd"/><path fill="#ffb7e7" d="M 173.671875 42.351562 C 173.671875 42.351562 175.289062 40.878906 178.3125 39.207031 C 181.332031 37.539062 184.054688 32.601562 184.074219 31.371094 C 184.109375 30.140625 182.175781 25.574219 182.175781 25.574219 C 182.175781 25.574219 179.136719 24.132812 178.082031 23.09375 C 177.027344 22.058594 175.515625 26.976562 178.433594 28.613281 L 178.699219 30.703125 C 178.699219 30.703125 170.019531 31.808594 168.15625 37.519531 L 169.597656 41.859375 Z M 173.671875 42.351562 " fill-opacity="1" fill-rule="evenodd"/><path fill="#000000" d="M 171.300781 34.210938 C 172.988281 32.753906 175.449219 31.3125 178.734375 30.960938 C 178.804688 30.960938 178.855469 30.925781 178.890625 30.875 C 178.945312 30.820312 178.945312 30.769531 178.945312 30.699219 L 178.679688 28.605469 C 178.664062 28.554688 178.644531 28.5 178.59375 28.464844 C 178.59375 28.464844 176.238281 26.5 177.378906 23.632812 C 177.484375 23.386719 177.730469 23.40625 178.046875 23.511719 C 179.085938 23.84375 180.703125 25.179688 181.703125 25.691406 C 181.808594 25.742188 181.949219 25.707031 182.019531 25.585938 C 182.070312 25.480469 182.019531 25.339844 181.914062 25.285156 C 181.054688 24.863281 179.734375 23.808594 178.714844 23.300781 C 178.332031 23.105469 177.996094 23.003906 177.714844 23.003906 C 177.363281 23.003906 177.101562 23.140625 176.960938 23.492188 C 175.816406 26.359375 177.839844 28.414062 178.242188 28.800781 L 178.472656 30.574219 C 175.167969 30.996094 172.726562 32.457031 171.003906 33.914062 C 170.914062 34 170.898438 34.140625 170.988281 34.230469 C 171.054688 34.28125 171.214844 34.28125 171.300781 34.210938 Z M 171.300781 34.210938 " fill-opacity="1" fill-rule="evenodd"/><path fill="#ffb7e7" d="M 251.382812 218.273438 C 246.058594 223.546875 238.398438 222.492188 235.660156 221.894531 C 235.710938 223.792969 235.675781 225.988281 235.253906 227.359375 C 234.410156 230.167969 231.777344 233.613281 232.617188 239.164062 C 232.617188 239.164062 234.339844 237.304688 236.152344 235.984375 C 236.152344 235.984375 237.203125 243.558594 237.800781 244.910156 C 238.398438 246.265625 242.140625 246.105469 244.617188 243.804688 C 244.617188 243.804688 248.398438 244.839844 251.03125 242.082031 C 251.03125 242.082031 255.652344 242.785156 256.074219 238.480469 C 256.476562 234.175781 252.910156 227.464844 252.15625 224.371094 C 251.699219 222.527344 251.488281 220.03125 251.382812 218.273438 Z M 251.382812 218.273438 " fill-opacity="1" fill-rule="evenodd"/><path fill="#000000" d="M 236.378906 236.265625 L 236.308594 233.171875 C 236.289062 233.03125 236.1875 232.925781 236.0625 232.945312 C 235.921875 232.945312 235.816406 233.066406 235.816406 233.191406 L 235.90625 236.28125 C 235.90625 236.421875 236.027344 236.527344 236.152344 236.527344 C 236.273438 236.511719 236.378906 236.386719 236.378906 236.265625 Z M 236.378906 236.265625 " fill-opacity="1" fill-rule="evenodd"/><path fill="#ffffff" d="M 163.78125 164.296875 C 163.78125 164.296875 169.84375 171.199219 177.238281 170.5 C 177.238281 170.5 181.753906 177.5625 190.804688 175.820312 C 190.804688 175.820312 196.109375 180.757812 201.363281 180.652344 L 207.109375 150.398438 L 212.484375 119.558594 L 192.296875 113.9375 L 187.886719 110.863281 L 164.941406 154.527344 Z M 163.78125 164.296875 " fill-opacity="1" fill-rule="evenodd"/><path fill="#ffb7e7" d="M 197.742188 89.1875 C 197.742188 89.1875 192.382812 102.683594 197.824219 105.300781 L 196.394531 109.328125 L 197.03125 116.605469 L 203.570312 117.1875 L 209.304688 114.480469 L 213.429688 103.398438 C 213.429688 103.398438 221.4375 105.09375 223.183594 101.207031 C 224.929688 97.320312 218.636719 95.652344 214.496094 96.464844 L 216.140625 88.160156 L 200.980469 83.671875 L 198.082031 87.3125 Z M 197.742188 89.1875 " fill-opacity="1" fill-rule="evenodd"/><path fill="#000000" d="M 203.839844 95.644531 C 203.648438 95.570312 203.523438 95.414062 203.464844 95.175781 C 203.402344 94.933594 203.421875 94.679688 203.527344 94.414062 C 203.628906 94.148438 203.785156 93.945312 203.988281 93.808594 C 204.195312 93.671875 204.394531 93.640625 204.582031 93.714844 C 204.773438 93.789062 204.898438 93.945312 204.957031 94.183594 C 205.019531 94.425781 205 94.679688 204.894531 94.945312 C 204.792969 95.210938 204.636719 95.410156 204.433594 95.546875 C 204.226562 95.683594 204.027344 95.71875 203.839844 95.644531 Z M 203.839844 95.644531 " fill-opacity="1" fill-rule="nonzero"/><path fill="#000000" d="M 198.726562 93.832031 C 198.53125 93.777344 198.390625 93.636719 198.304688 93.40625 C 198.214844 93.171875 198.210938 92.917969 198.285156 92.644531 C 198.355469 92.367188 198.488281 92.148438 198.679688 91.992188 C 198.871094 91.832031 199.0625 91.78125 199.257812 91.832031 C 199.453125 91.882812 199.597656 92.027344 199.683594 92.257812 C 199.769531 92.488281 199.777344 92.746094 199.703125 93.019531 C 199.628906 93.296875 199.496094 93.511719 199.308594 93.671875 C 199.117188 93.828125 198.921875 93.882812 198.726562 93.832031 Z M 198.726562 93.832031 " fill-opacity="1" fill-rule="nonzero"/><path fill="#000000" d="M 214.710938 98.402344 C 214.210938 99.359375 214.199219 100.34375 214.578125 101.324219 C 214.578125 101.324219 218.421875 101.957031 219.132812 100.386719 C 219.847656 98.832031 216.058594 98.226562 214.710938 98.402344 Z M 214.710938 98.402344 " fill-opacity="1" fill-rule="evenodd"/><path fill="#000000" d="M 202.996094 106.082031 C 202.996094 106.082031 201.449219 108.542969 196.460938 109.070312 L 197.8125 105.292969 C 197.8125 105.292969 199.695312 106.398438 202.996094 106.082031 Z M 202.996094 106.082031 " fill-opacity="1" fill-rule="evenodd"/><path fill="#daffbc" d="M 248.609375 92.921875 C 247.410156 79.84375 255.710938 67.371094 268.796875 63.753906 C 283.511719 59.71875 298.722656 68.367188 302.765625 83.0625 C 306.828125 97.769531 298.171875 113.003906 283.457031 117.035156 C 270.371094 120.65625 256.839844 114.171875 251.1875 102.300781 L 230.832031 102.84375 Z M 248.609375 92.921875 " fill-opacity="1" fill-rule="evenodd"/><path fill="#000000" d="M 302.574219 83.132812 C 306.582031 97.707031 298 112.804688 283.417969 116.835938 C 270.414062 120.394531 257 113.980469 251.414062 102.222656 C 251.378906 102.152344 251.28125 102.09375 251.199219 102.101562 L 230.84375 102.640625 C 230.710938 102.644531 230.605469 102.738281 230.609375 102.871094 C 230.613281 103 230.71875 103.085938 230.847656 103.082031 L 251.054688 102.535156 C 256.804688 114.410156 270.367188 120.886719 283.535156 117.261719 C 298.351562 113.183594 307.078125 97.835938 303 83.015625 C 302.964844 82.894531 302.828125 82.816406 302.726562 82.859375 C 302.605469 82.894531 302.539062 83.011719 302.574219 83.132812 Z M 302.574219 83.132812 " fill-opacity="1" fill-rule="evenodd"/><path fill="#ffdb3b" d="M 289.777344 161.269531 L 292.121094 180.359375 C 292.230469 181.28125 292.605469 182.121094 293.199219 182.792969 C 293.792969 183.464844 294.539062 183.882812 295.359375 184.007812 L 312.285156 186.652344 L 295.359375 189.292969 C 294.539062 189.421875 293.792969 189.839844 293.199219 190.511719 C 292.605469 191.183594 292.230469 192.023438 292.121094 192.945312 L 289.777344 212.035156 L 287.433594 192.945312 C 287.320312 192.023438 286.949219 191.183594 286.351562 190.511719 C 285.757812 189.839844 285.015625 189.421875 284.195312 189.292969 L 267.265625 186.652344 L 284.195312 184.007812 C 285.015625 183.882812 285.757812 183.464844 286.351562 182.792969 C 286.949219 182.121094 287.320312 181.28125 287.433594 180.359375 Z M 289.777344 161.269531 " fill-opacity="1" fill-rule="evenodd"/><path fill="#ffdb3b" d="M 81.113281 200.117188 L 82.996094 215.441406 C 83.085938 216.183594 83.382812 216.855469 83.863281 217.394531 C 84.339844 217.933594 84.9375 218.269531 85.59375 218.371094 L 99.1875 220.492188 L 85.59375 222.613281 C 84.9375 222.714844 84.339844 223.054688 83.863281 223.589844 C 83.386719 224.128906 83.085938 224.804688 82.996094 225.546875 L 81.113281 240.871094 L 79.234375 225.546875 C 79.144531 224.804688 78.84375 224.128906 78.367188 223.589844 C 77.890625 223.054688 77.292969 222.714844 76.632812 222.613281 L 63.042969 220.492188 L 76.632812 218.371094 C 77.292969 218.269531 77.890625 217.933594 78.367188 217.394531 C 78.84375 216.855469 79.144531 216.183594 79.234375 215.441406 Z M 81.113281 200.117188 " fill-opacity="1" fill-rule="evenodd"/><path fill="#7bc53e" d="M 102.429688 171.324219 C 102.429688 171.671875 102.363281 172.003906 102.230469 172.324219 C 102.097656 172.648438 101.90625 172.929688 101.664062 173.175781 C 101.417969 173.421875 101.132812 173.609375 100.8125 173.742188 C 100.492188 173.875 100.160156 173.941406 99.8125 173.941406 C 99.464844 173.941406 99.128906 173.875 98.808594 173.742188 C 98.488281 173.609375 98.207031 173.421875 97.960938 173.175781 C 97.714844 172.929688 97.523438 172.648438 97.390625 172.324219 C 97.261719 172.003906 97.195312 171.671875 97.195312 171.324219 C 97.195312 170.976562 97.261719 170.644531 97.390625 170.320312 C 97.523438 170 97.714844 169.71875 97.960938 169.472656 C 98.207031 169.226562 98.488281 169.039062 98.808594 168.90625 C 99.128906 168.773438 99.464844 168.707031 99.8125 168.707031 C 100.160156 168.707031 100.492188 168.773438 100.8125 168.90625 C 101.132812 169.039062 101.417969 169.226562 101.664062 169.472656 C 101.90625 169.71875 102.097656 170 102.230469 170.320312 C 102.363281 170.644531 102.429688 170.976562 102.429688 171.324219 Z M 102.429688 171.324219 " fill-opacity="1" fill-rule="nonzero"/><path fill="#019cef" d="M 268.089844 134.019531 C 268.089844 134.300781 268.039062 134.570312 267.929688 134.828125 C 267.824219 135.085938 267.671875 135.3125 267.472656 135.511719 C 267.273438 135.710938 267.046875 135.863281 266.789062 135.96875 C 266.53125 136.074219 266.261719 136.128906 265.984375 136.128906 C 265.703125 136.128906 265.433594 136.074219 265.175781 135.96875 C 264.917969 135.863281 264.6875 135.710938 264.492188 135.511719 C 264.292969 135.3125 264.140625 135.085938 264.035156 134.828125 C 263.925781 134.570312 263.875 134.300781 263.875 134.019531 C 263.875 133.742188 263.925781 133.472656 264.035156 133.214844 C 264.140625 132.957031 264.292969 132.726562 264.492188 132.53125 C 264.6875 132.332031 264.917969 132.179688 265.175781 132.074219 C 265.433594 131.964844 265.703125 131.914062 265.984375 131.914062 C 266.261719 131.914062 266.53125 131.964844 266.789062 132.074219 C 267.046875 132.179688 267.273438 132.332031 267.472656 132.53125 C 267.671875 132.726562 267.824219 132.957031 267.929688 133.214844 C 268.039062 133.472656 268.089844 133.742188 268.089844 134.019531 Z M 268.089844 134.019531 " fill-opacity="1" fill-rule="nonzero"/><path fill="#000000" d="M 238.136719 114.375 L 242.757812 123.425781 C 242.808594 123.546875 242.96875 123.601562 243.089844 123.53125 C 243.210938 123.476562 243.246094 123.320312 243.195312 123.195312 L 238.558594 114.148438 C 238.503906 114.023438 238.347656 113.972656 238.242188 114.042969 C 238.136719 114.113281 238.082031 114.253906 238.136719 114.375 Z M 238.136719 114.375 " fill-opacity="1" fill-rule="evenodd"/><path fill="#000000" d="M 238.117188 43.441406 L 238.117188 53.527344 C 238.117188 53.667969 238.222656 53.773438 238.363281 53.773438 C 238.503906 53.773438 238.59375 53.667969 238.59375 53.527344 L 238.59375 43.441406 C 238.59375 43.300781 238.488281 43.195312 238.363281 43.195312 C 238.222656 43.195312 238.117188 43.300781 238.117188 43.441406 Z M 238.117188 43.441406 " fill-opacity="1" fill-rule="evenodd"/><path fill="#000000" d="M 125.058594 75.285156 L 122.828125 87.585938 C 122.808594 87.726562 122.898438 87.847656 123.039062 87.867188 C 123.179688 87.882812 123.300781 87.796875 123.320312 87.671875 L 125.550781 75.375 C 125.585938 75.234375 125.496094 75.109375 125.355469 75.09375 C 125.21875 75.074219 125.09375 75.164062 125.058594 75.285156 Z M 125.058594 75.285156 " fill-opacity="1" fill-rule="evenodd"/><path fill="#000000" d="M 323.082031 225.460938 C 322.996094 224.984375 322.855469 224.511719 322.664062 224.089844 C 322.277344 223.246094 321.660156 222.578125 320.730469 222.332031 C 319.183594 221.929688 317.445312 222.367188 316.355469 223.546875 C 315.671875 224.300781 315.457031 225.179688 315.6875 225.917969 C 315.917969 226.671875 316.53125 227.304688 317.566406 227.570312 C 319.394531 228.042969 321.222656 227.394531 322.730469 226.339844 C 322.785156 226.902344 322.785156 227.464844 322.785156 227.921875 C 322.679688 233.140625 318.304688 236.917969 313.949219 239.078125 C 313.824219 239.128906 313.789062 239.289062 313.84375 239.410156 C 313.894531 239.535156 314.050781 239.585938 314.160156 239.515625 C 318.671875 237.269531 323.171875 233.332031 323.257812 227.921875 C 323.277344 227.359375 323.257812 226.671875 323.171875 225.988281 C 323.558594 225.6875 323.910156 225.371094 324.242188 225.054688 C 327.757812 221.59375 330.304688 215.988281 330.480469 211.035156 C 330.480469 210.894531 330.375 210.789062 330.253906 210.789062 C 330.113281 210.789062 330.007812 210.894531 329.988281 211.015625 C 329.832031 215.847656 327.335938 221.332031 323.910156 224.703125 C 323.628906 224.984375 323.347656 225.230469 323.082031 225.460938 Z M 322.644531 225.792969 C 322.558594 225.265625 322.417969 224.757812 322.222656 224.28125 C 321.90625 223.582031 321.398438 223 320.589844 222.789062 C 319.21875 222.421875 317.671875 222.808594 316.707031 223.859375 C 316.125 224.476562 315.949219 225.160156 316.125 225.777344 C 316.300781 226.390625 316.828125 226.882812 317.65625 227.09375 C 319.445312 227.570312 321.1875 226.867188 322.644531 225.792969 Z M 322.644531 225.792969 " fill-opacity="1" fill-rule="evenodd"/><g clip-path="url(#e186c2ce11)"><path fill="#000000" d="M 54.9375 173.609375 C 56.414062 177.507812 59.875 180.953125 63.53125 182.691406 C 63.652344 182.746094 63.792969 182.691406 63.847656 182.570312 C 63.898438 182.445312 63.863281 182.304688 63.722656 182.253906 C 60.261719 180.617188 56.996094 177.421875 55.519531 173.765625 C 56.027344 173.890625 56.554688 173.941406 57.066406 173.941406 C 58.3125 173.925781 59.488281 173.503906 60.28125 172.414062 C 60.683594 171.867188 60.929688 171.078125 61.019531 170.183594 C 61.125 168.882812 60.894531 167.386719 60.296875 166.332031 C 59.945312 165.71875 59.488281 165.226562 58.925781 164.980469 C 58.347656 164.734375 57.644531 164.71875 56.855469 165.070312 C 55.835938 165.507812 55.148438 166.332031 54.746094 167.316406 C 54.148438 168.742188 54.128906 170.5 54.429688 171.886719 C 54.5 172.289062 54.621094 172.675781 54.726562 173.0625 C 54.394531 172.941406 54.078125 172.816406 53.777344 172.675781 C 49.070312 170.445312 46.207031 165.914062 44.027344 161.378906 C 43.976562 161.257812 43.816406 161.203125 43.710938 161.257812 C 43.589844 161.308594 43.535156 161.464844 43.589844 161.589844 C 45.820312 166.226562 48.753906 170.832031 53.566406 173.117188 C 54.007812 173.273438 54.445312 173.46875 54.9375 173.609375 Z M 55.308594 173.203125 C 55.886719 173.363281 56.484375 173.449219 57.082031 173.433594 C 58.171875 173.414062 59.210938 173.0625 59.929688 172.097656 C 60.28125 171.621094 60.492188 170.902344 60.542969 170.113281 C 60.667969 168.898438 60.4375 167.527344 59.894531 166.527344 C 59.59375 166 59.226562 165.597656 58.75 165.386719 C 58.261719 165.175781 57.714844 165.191406 57.046875 165.472656 C 55.921875 165.964844 55.273438 166.984375 54.972656 168.144531 C 54.660156 169.339844 54.675781 170.65625 54.90625 171.726562 C 54.992188 172.238281 55.148438 172.730469 55.308594 173.203125 Z M 55.308594 173.203125 " fill-opacity="1" fill-rule="evenodd"/></g><path fill="#ffdb3b" d="M 103.828125 136.234375 L 68.984375 150.273438 L 59.097656 125.734375 L 93.945312 111.695312 Z M 103.828125 136.234375 " fill-opacity="1" fill-rule="evenodd"/><path fill="#000000" d="M 59.105469 125.976562 L 81.90625 132.320312 C 82.015625 132.339844 82.121094 132.296875 82.183594 132.207031 L 94.222656 111.828125 C 94.277344 111.710938 94.242188 111.566406 94.136719 111.484375 C 94.027344 111.398438 93.878906 111.460938 93.804688 111.585938 L 81.882812 131.824219 C 79.734375 131.234375 59.238281 125.511719 59.238281 125.511719 C 59.121094 125.464844 58.980469 125.550781 58.949219 125.660156 C 58.886719 125.8125 58.964844 125.9375 59.105469 125.976562 Z M 59.105469 125.976562 " fill-opacity="1" fill-rule="evenodd"/><path fill="#fe5e3a" d="M 99.957031 109.433594 C 100.132812 109.871094 100.261719 110.320312 100.351562 110.78125 C 100.4375 111.246094 100.480469 111.710938 100.476562 112.179688 C 100.46875 112.652344 100.417969 113.117188 100.324219 113.578125 C 100.226562 114.035156 100.085938 114.484375 99.902344 114.914062 C 99.71875 115.347656 99.496094 115.757812 99.230469 116.148438 C 98.964844 116.535156 98.664062 116.894531 98.328125 117.222656 C 97.992188 117.554688 97.628906 117.847656 97.234375 118.105469 C 96.839844 118.359375 96.425781 118.578125 95.992188 118.753906 C 95.554688 118.929688 95.105469 119.0625 94.644531 119.148438 C 94.179688 119.234375 93.714844 119.277344 93.246094 119.273438 C 92.773438 119.265625 92.308594 119.21875 91.847656 119.121094 C 91.390625 119.023438 90.941406 118.882812 90.511719 118.699219 C 90.078125 118.515625 89.667969 118.292969 89.277344 118.027344 C 88.890625 117.761719 88.53125 117.460938 88.203125 117.125 C 87.875 116.789062 87.578125 116.425781 87.324219 116.03125 C 87.066406 115.636719 86.847656 115.222656 86.671875 114.789062 C 86.496094 114.351562 86.367188 113.902344 86.277344 113.441406 C 86.191406 112.976562 86.148438 112.511719 86.15625 112.042969 C 86.160156 111.570312 86.210938 111.105469 86.304688 110.644531 C 86.402344 110.1875 86.542969 109.738281 86.726562 109.308594 C 86.910156 108.875 87.136719 108.464844 87.398438 108.074219 C 87.664062 107.6875 87.964844 107.328125 88.300781 107 C 88.636719 106.667969 89 106.375 89.394531 106.117188 C 89.789062 105.863281 90.203125 105.644531 90.640625 105.46875 C 91.074219 105.292969 91.523438 105.160156 91.984375 105.074219 C 92.449219 104.988281 92.914062 104.945312 93.382812 104.949219 C 93.855469 104.957031 94.320312 105.003906 94.78125 105.101562 C 95.238281 105.199219 95.6875 105.339844 96.121094 105.523438 C 96.550781 105.707031 96.960938 105.929688 97.351562 106.195312 C 97.738281 106.460938 98.097656 106.761719 98.425781 107.097656 C 98.757812 107.433594 99.050781 107.796875 99.304688 108.191406 C 99.5625 108.585938 99.78125 109 99.957031 109.433594 Z M 99.957031 109.433594 " fill-opacity="1" fill-rule="nonzero"/><path fill="#ffffff" d="M 92.167969 110.960938 L 89.375 109.769531 C 89.078125 109.628906 88.707031 109.785156 88.566406 110.082031 C 88.425781 110.382812 88.585938 110.75 88.882812 110.890625 L 91.675781 112.085938 L 88.867188 113.230469 C 88.550781 113.351562 88.390625 113.703125 88.53125 114.019531 C 88.65625 114.335938 89.007812 114.476562 89.324219 114.355469 L 92.132812 113.210938 L 90.9375 116.003906 C 90.796875 116.320312 90.957031 116.671875 91.253906 116.8125 C 91.554688 116.953125 91.921875 116.796875 92.0625 116.496094 L 93.257812 113.703125 L 94.398438 116.515625 C 94.523438 116.832031 94.875 116.972656 95.191406 116.847656 C 95.507812 116.726562 95.648438 116.375 95.523438 116.058594 L 94.382812 113.246094 L 97.175781 114.441406 C 97.472656 114.566406 97.84375 114.425781 97.984375 114.125 C 98.125 113.808594 97.964844 113.457031 97.667969 113.335938 L 94.875 112.140625 L 97.683594 110.996094 C 98 110.875 98.160156 110.523438 98.019531 110.207031 C 97.894531 109.890625 97.546875 109.75 97.230469 109.875 L 94.417969 111.015625 L 95.613281 108.222656 C 95.753906 107.90625 95.59375 107.554688 95.296875 107.429688 C 94.996094 107.308594 94.628906 107.449219 94.488281 107.746094 L 93.292969 110.539062 L 92.167969 107.730469 C 92.027344 107.414062 91.675781 107.273438 91.359375 107.394531 C 91.042969 107.519531 90.902344 107.871094 91.027344 108.1875 Z M 92.167969 110.960938 " fill-opacity="1" fill-rule="evenodd"/><path fill="#ffc6c6" d="M 100.808594 255.019531 L 70.621094 274.105469 L 100.914062 322.023438 L 139.722656 297.484375 L 114.777344 258.023438 Z M 100.808594 255.019531 " fill-opacity="1" fill-rule="evenodd"/><path fill="#ff8989" d="M 100.859375 255.011719 L 114.820312 258.03125 L 106.210938 263.472656 Z M 100.859375 255.011719 " fill-opacity="1" fill-rule="evenodd"/><path fill="#ffffff" d="M 96.652344 281.125 L 86.277344 287.683594 L 78.945312 276.085938 L 89.320312 269.527344 Z M 96.652344 281.125 " fill-opacity="1" fill-rule="evenodd"/><path fill="#000000" d="M 89.179688 292.285156 L 116.125 275.25 C 116.230469 275.183594 116.25 275.039062 116.183594 274.933594 C 116.117188 274.824219 115.964844 274.792969 115.871094 274.851562 L 88.929688 291.886719 C 88.824219 291.953125 88.789062 292.105469 88.855469 292.210938 C 88.929688 292.332031 89.074219 292.351562 89.179688 292.285156 Z M 89.179688 292.285156 " fill-opacity="1" fill-rule="evenodd"/><path fill="#000000" d="M 98.4375 277.132812 L 111.976562 268.570312 C 112.082031 268.503906 112.105469 268.359375 112.039062 268.253906 C 111.96875 268.148438 111.824219 268.109375 111.726562 268.171875 L 98.183594 276.734375 C 98.078125 276.800781 98.050781 276.949219 98.117188 277.054688 C 98.191406 277.175781 98.332031 277.199219 98.4375 277.132812 Z M 98.4375 277.132812 " fill-opacity="1" fill-rule="evenodd"/><path fill="#000000" d="M 94.335938 270.386719 L 105.925781 263.058594 C 106.027344 262.996094 106.054688 262.847656 105.988281 262.742188 C 105.917969 262.632812 105.773438 262.59375 105.671875 262.660156 L 94.085938 269.988281 C 93.984375 270.050781 93.949219 270.203125 94.019531 270.308594 C 94.085938 270.414062 94.234375 270.449219 94.335938 270.386719 Z M 94.335938 270.386719 " fill-opacity="1" fill-rule="evenodd"/><path fill="#000000" d="M 93.402344 298.949219 L 120.34375 281.914062 C 120.449219 281.847656 120.472656 281.703125 120.40625 281.597656 C 120.335938 281.492188 120.183594 281.457031 120.09375 281.515625 L 93.148438 298.550781 C 93.042969 298.621094 93.007812 298.769531 93.074219 298.878906 C 93.144531 298.984375 93.292969 299.019531 93.402344 298.949219 Z M 93.402344 298.949219 " fill-opacity="1" fill-rule="evenodd"/><path fill="#000000" d="M 97.605469 305.617188 L 124.546875 288.582031 C 124.652344 288.515625 124.675781 288.371094 124.605469 288.265625 C 124.539062 288.15625 124.386719 288.125 124.296875 288.183594 L 97.351562 305.21875 C 97.246094 305.285156 97.210938 305.4375 97.277344 305.542969 C 97.34375 305.648438 97.496094 305.683594 97.605469 305.617188 Z M 97.605469 305.617188 " fill-opacity="1" fill-rule="evenodd"/><path fill="#000000" d="M 101.816406 312.269531 L 128.757812 295.234375 C 128.863281 295.167969 128.886719 295.023438 128.816406 294.917969 C 128.75 294.8125 128.597656 294.777344 128.507812 294.835938 L 101.5625 311.871094 C 101.457031 311.9375 101.421875 312.089844 101.488281 312.195312 C 101.566406 312.316406 101.707031 312.335938 101.816406 312.269531 Z M 101.816406 312.269531 " fill-opacity="1" fill-rule="evenodd"/><path fill="#000000" d="M 201.359375 92.328125 C 201.359375 92.328125 199.695312 95.515625 199.324219 97.679688 C 199.304688 97.753906 199.332031 97.832031 199.378906 97.875 C 199.433594 97.933594 199.503906 97.957031 199.574219 97.957031 L 200.523438 97.898438 C 200.652344 97.878906 200.757812 97.765625 200.753906 97.644531 C 200.742188 97.503906 200.621094 97.410156 200.488281 97.410156 L 199.847656 97.441406 C 200.3125 95.359375 201.773438 92.535156 201.773438 92.535156 C 201.835938 92.414062 201.773438 92.269531 201.667969 92.214844 C 201.574219 92.167969 201.421875 92.207031 201.359375 92.328125 Z M 201.359375 92.328125 " fill-opacity="1" fill-rule="evenodd"/><path fill="#000000" d="M 198.359375 101.019531 C 198.359375 101.019531 200.96875 102.269531 203.609375 100.632812 C 203.730469 100.5625 203.769531 100.414062 203.691406 100.304688 C 203.617188 100.183594 203.464844 100.15625 203.347656 100.21875 C 200.949219 101.707031 198.5625 100.585938 198.5625 100.585938 C 198.441406 100.523438 198.28125 100.578125 198.234375 100.703125 C 198.191406 100.816406 198.238281 100.960938 198.359375 101.019531 Z M 198.359375 101.019531 " fill-opacity="1" fill-rule="evenodd"/><path fill="#000000" d="M 203.140625 99.4375 C 203.140625 99.4375 202.886719 100.402344 204.0625 101.128906 C 204.175781 101.203125 204.332031 101.164062 204.40625 101.050781 C 204.480469 100.9375 204.441406 100.78125 204.328125 100.707031 C 203.511719 100.195312 203.621094 99.546875 203.621094 99.546875 C 203.65625 99.414062 203.570312 99.285156 203.449219 99.257812 C 203.292969 99.230469 203.167969 99.316406 203.140625 99.4375 Z M 203.140625 99.4375 " fill-opacity="1" fill-rule="evenodd"/><path fill="#000000" d="M 204.011719 91.992188 C 204.011719 91.992188 205.757812 91.460938 206.347656 92.917969 C 206.398438 93.046875 206.539062 93.101562 206.667969 93.046875 C 206.796875 92.996094 206.851562 92.855469 206.796875 92.726562 C 206.046875 90.886719 203.867188 91.515625 203.867188 91.515625 C 203.734375 91.546875 203.664062 91.679688 203.699219 91.816406 C 203.746094 91.957031 203.890625 92.03125 204.011719 91.992188 Z M 204.011719 91.992188 " fill-opacity="1" fill-rule="evenodd"/><path fill="#000000" d="M 198.550781 90.179688 C 198.550781 90.179688 200.230469 89.464844 200.972656 90.847656 C 201.039062 90.96875 201.1875 91.007812 201.308594 90.941406 C 201.429688 90.875 201.464844 90.730469 201.398438 90.609375 C 200.457031 88.859375 198.355469 89.71875 198.355469 89.71875 C 198.226562 89.769531 198.171875 89.90625 198.222656 90.039062 C 198.269531 90.167969 198.421875 90.226562 198.550781 90.179688 Z M 198.550781 90.179688 " fill-opacity="1" fill-rule="evenodd"/><path fill="#703719" d="M 196.515625 93.539062 C 196.515625 93.539062 193.476562 92.273438 193.542969 89.285156 C 193.625 86.035156 196.398438 85.234375 196.398438 85.234375 C 196.398438 85.234375 194.800781 80.917969 198.957031 78.703125 C 202.082031 77.042969 205.679688 79.128906 205.679688 79.128906 C 205.679688 79.128906 207.660156 76.433594 210.484375 77.359375 C 213.335938 78.296875 213.867188 81.101562 213.867188 81.101562 C 213.867188 81.101562 216.960938 79.457031 219.320312 81.539062 C 221.738281 83.667969 220.460938 85.761719 220.460938 85.761719 C 220.460938 85.761719 223.324219 86.90625 223.277344 88.761719 C 223.226562 90.617188 221.722656 91.835938 221.722656 91.835938 C 221.722656 91.835938 222.945312 94.371094 221.140625 97.070312 C 221.140625 97.070312 218.574219 95.738281 214.515625 96.425781 C 214.515625 96.425781 213.199219 97.773438 211.851562 97.378906 C 210.492188 96.976562 210.839844 94.230469 211.613281 92.335938 C 211.613281 92.335938 208.375 92.164062 208.171875 89.777344 C 208.171875 89.777344 205.207031 89.097656 204.867188 86.644531 C 204.867188 86.644531 203.199219 88.019531 201.335938 86.757812 C 201.335938 86.757812 199.734375 89.457031 197.746094 89.105469 Z M 196.515625 93.539062 " fill-opacity="1" fill-rule="evenodd"/><path fill="#000000" d="M 197.691406 105.503906 C 197.691406 105.503906 200.816406 107.15625 205.296875 105.800781 C 205.4375 105.765625 205.507812 105.625 205.457031 105.503906 C 205.402344 105.378906 205.28125 105.308594 205.140625 105.34375 C 200.886719 106.628906 197.917969 105.082031 197.917969 105.082031 C 197.796875 105.011719 197.65625 105.0625 197.585938 105.1875 C 197.53125 105.292969 197.566406 105.433594 197.691406 105.503906 Z M 197.691406 105.503906 " fill-opacity="1" fill-rule="evenodd"/><path fill="#019cef" d="M 110.089844 41.332031 L 116.835938 44.003906 L 112.726562 59.679688 L 109.527344 57.746094 Z M 110.089844 41.332031 " fill-opacity="1" fill-rule="evenodd"/><path fill="#ffdb3b" d="M 196.460938 46.375 L 199.730469 43.898438 L 205.226562 55.304688 L 199.730469 55.546875 Z M 196.460938 46.375 " fill-opacity="1" fill-rule="evenodd"/><path fill="#fe860e" d="M 255.265625 25.132812 C 255.265625 25.132812 258.023438 35.78125 254.652344 41.964844 L 249.644531 41.332031 L 255.246094 34.148438 L 250.976562 27.996094 Z M 255.265625 25.132812 " fill-opacity="1" fill-rule="evenodd"/><path fill="#fe5e3a" d="M 126.972656 130.894531 L 131.683594 125.304688 L 131.542969 134.933594 L 137.480469 140.257812 L 131.71875 139.75 L 130.910156 135.671875 Z M 126.972656 130.894531 " fill-opacity="1" fill-rule="evenodd"/><path fill="#7bc53e" d="M 263.085938 90.640625 L 272.042969 99.96875 C 273.132812 101.09375 274.910156 101.164062 276.066406 100.109375 L 292.335938 85.472656 C 293.53125 84.402344 293.621094 82.574219 292.566406 81.378906 C 291.496094 80.183594 289.648438 80.097656 288.472656 81.167969 L 274.292969 93.925781 L 267.285156 86.617188 C 266.175781 85.457031 264.332031 85.421875 263.191406 86.527344 C 262.03125 87.652344 261.996094 89.480469 263.085938 90.640625 Z M 263.085938 90.640625 " fill-opacity="1" fill-rule="evenodd"/><path fill="#ffffff" d="M 305.367188 152.078125 L 305.710938 147.839844 C 305.945312 145.007812 308.046875 142.761719 310.757812 142.273438 C 311.230469 142.175781 311.730469 142.320312 312.09375 142.636719 C 313.269531 143.648438 314.789062 144.265625 316.464844 144.265625 C 318.113281 144.265625 319.632812 143.664062 320.808594 142.667969 C 321.1875 142.335938 321.703125 142.207031 322.1875 142.335938 C 324.714844 142.90625 326.65625 145.023438 326.957031 147.699219 L 327.441406 152.144531 C 324.683594 155.085938 320.777344 156.90625 316.433594 156.90625 C 312.058594 156.921875 308.125 155.054688 305.367188 152.078125 Z M 305.367188 152.078125 " fill-opacity="1" fill-rule="evenodd"/><path fill="#ffffff" d="M 321.460938 137.527344 C 321.460938 137.855469 321.425781 138.183594 321.363281 138.507812 C 321.296875 138.832031 321.203125 139.144531 321.078125 139.449219 C 320.949219 139.757812 320.796875 140.046875 320.613281 140.320312 C 320.429688 140.59375 320.21875 140.847656 319.988281 141.082031 C 319.753906 141.316406 319.5 141.523438 319.226562 141.707031 C 318.949219 141.890625 318.660156 142.046875 318.355469 142.171875 C 318.050781 142.300781 317.734375 142.394531 317.410156 142.460938 C 317.089844 142.523438 316.761719 142.554688 316.429688 142.554688 C 316.101562 142.554688 315.773438 142.523438 315.449219 142.460938 C 315.125 142.394531 314.8125 142.300781 314.507812 142.171875 C 314.199219 142.046875 313.910156 141.890625 313.636719 141.707031 C 313.363281 141.523438 313.109375 141.316406 312.875 141.082031 C 312.640625 140.847656 312.433594 140.59375 312.25 140.320312 C 312.066406 140.046875 311.910156 139.757812 311.785156 139.449219 C 311.65625 139.144531 311.5625 138.832031 311.5 138.507812 C 311.433594 138.183594 311.402344 137.855469 311.402344 137.527344 C 311.402344 137.195312 311.433594 136.867188 311.5 136.546875 C 311.5625 136.222656 311.65625 135.90625 311.785156 135.601562 C 311.910156 135.296875 312.066406 135.007812 312.25 134.730469 C 312.433594 134.457031 312.640625 134.203125 312.875 133.96875 C 313.109375 133.738281 313.363281 133.527344 313.636719 133.34375 C 313.910156 133.160156 314.199219 133.007812 314.507812 132.878906 C 314.8125 132.753906 315.125 132.65625 315.449219 132.59375 C 315.773438 132.527344 316.101562 132.496094 316.429688 132.496094 C 316.761719 132.496094 317.089844 132.527344 317.410156 132.59375 C 317.734375 132.65625 318.050781 132.753906 318.355469 132.878906 C 318.660156 133.007812 318.949219 133.160156 319.226562 133.34375 C 319.5 133.527344 319.753906 133.738281 319.988281 133.96875 C 320.21875 134.203125 320.429688 134.457031 320.613281 134.730469 C 320.796875 135.007812 320.949219 135.296875 321.078125 135.601562 C 321.203125 135.90625 321.296875 136.222656 321.363281 136.546875 C 321.425781 136.867188 321.460938 137.195312 321.460938 137.527344 Z M 321.460938 137.527344 " fill-opacity="1" fill-rule="nonzero"/><path fill="#ffffff" d="M 199.640625 111.953125 L 199.640625 115.816406 L 196.953125 114.113281 Z M 199.640625 111.953125 " fill-opacity="1" fill-rule="evenodd"/><path fill="#000000" d="M 199.871094 111.953125 C 199.871094 111.863281 199.816406 111.777344 199.730469 111.722656 C 199.640625 111.6875 199.535156 111.6875 199.464844 111.757812 L 196.777344 113.917969 C 196.722656 113.972656 196.6875 114.042969 196.6875 114.128906 C 196.707031 114.21875 196.742188 114.289062 196.8125 114.324219 L 199.5 116.027344 C 199.570312 116.082031 199.660156 116.082031 199.746094 116.027344 C 199.816406 115.992188 199.867188 115.90625 199.867188 115.816406 L 199.867188 111.953125 Z M 199.394531 112.460938 L 199.394531 115.378906 L 197.375 114.09375 Z M 199.394531 112.460938 " fill-opacity="1" fill-rule="evenodd"/><path fill="#ffffff" d="M 203.980469 114.359375 L 200.75 116.167969 L 203.980469 118.171875 Z M 203.980469 114.359375 " fill-opacity="1" fill-rule="evenodd"/><path fill="#000000" d="M 204.226562 114.359375 C 204.226562 114.269531 204.171875 114.199219 204.105469 114.148438 C 204.035156 114.113281 203.945312 114.09375 203.859375 114.148438 L 200.625 115.957031 C 200.554688 115.992188 200.503906 116.082031 200.484375 116.167969 C 200.484375 116.257812 200.539062 116.34375 200.609375 116.378906 L 203.859375 118.382812 C 203.929688 118.433594 204.015625 118.433594 204.105469 118.382812 C 204.171875 118.347656 204.226562 118.257812 204.226562 118.171875 Z M 203.753906 114.761719 L 203.753906 117.714844 L 201.238281 116.152344 Z M 203.753906 114.761719 " fill-opacity="1" fill-rule="evenodd"/><path fill="#fe860e" d="M 195.265625 116.800781 L 194.667969 113.882812 L 197.707031 111.953125 L 198.867188 114.605469 Z M 195.265625 116.800781 " fill-opacity="1" fill-rule="evenodd"/><path fill="#fe860e" d="M 202.960938 117.152344 L 205 116.46875 L 204.980469 120.824219 L 202.382812 121.371094 Z M 202.960938 117.152344 " fill-opacity="1" fill-rule="evenodd"/><path fill="#000000" d="M 188.414062 141.453125 L 183.898438 155.019531 C 183.53125 155.160156 182.40625 155.722656 181.738281 157.054688 C 181.246094 158.09375 180.980469 159.605469 181.632812 161.765625 C 181.367188 162.011719 180.734375 162.625 180.277344 163.488281 C 179.894531 164.242188 179.628906 165.175781 179.875 166.191406 C 179.910156 166.332031 180.03125 166.402344 180.171875 166.367188 C 180.3125 166.332031 180.402344 166.210938 180.367188 166.070312 C 180.15625 165.175781 180.382812 164.367188 180.734375 163.699219 C 181.261719 162.679688 182.070312 162.027344 182.070312 162.027344 C 182.140625 161.957031 182.195312 161.851562 182.160156 161.765625 C 181.507812 159.675781 181.703125 158.25 182.195312 157.265625 C 182.898438 155.84375 184.179688 155.421875 184.179688 155.421875 C 184.25 155.40625 184.320312 155.335938 184.339844 155.265625 L 188.871094 141.59375 C 188.90625 141.472656 188.851562 141.332031 188.730469 141.296875 C 188.589844 141.261719 188.464844 141.332031 188.414062 141.453125 Z M 188.414062 141.453125 " fill-opacity="1" fill-rule="evenodd"/><path fill="#5679b0" d="M 215.734375 116.644531 C 222.585938 120.578125 226.734375 124.867188 226.734375 124.867188 C 232.265625 128.890625 235.042969 138.800781 235.042969 138.800781 C 241.210938 146.164062 246.058594 166.140625 246.058594 166.140625 C 254.96875 180.6875 253 208.503906 253 208.503906 C 258.324219 221.277344 241.121094 221.226562 236.34375 219.996094 C 231.566406 218.785156 233.320312 215.003906 233.320312 215.003906 C 229.140625 208.804688 232.074219 205.042969 232.074219 205.042969 C 227.101562 197.769531 228.332031 189.105469 228.332031 189.105469 C 225.308594 185.625 226.1875 179.214844 226.1875 179.214844 C 224.535156 177.878906 224.429688 175.734375 224.429688 175.734375 C 220.496094 172.078125 218.175781 165.738281 218.175781 165.738281 C 218.703125 167.933594 218.265625 171.078125 218.265625 171.078125 C 222.726562 181.761719 220.8125 189.878906 219.863281 192.707031 C 219.617188 193.410156 219.054688 193.9375 218.335938 194.167969 C 213.222656 195.710938 207.144531 195.078125 204.421875 194.640625 C 203.523438 194.5 202.785156 193.867188 202.523438 192.988281 C 200.273438 185.644531 199.746094 176.507812 200.203125 167.054688 C 205.527344 159.605469 211.464844 143.492188 211.464844 143.492188 L 208.058594 137.375 L 213.132812 133.667969 C 214.117188 129.574219 215.683594 116.996094 215.734375 116.644531 Z M 215.734375 116.644531 " fill-opacity="1" fill-rule="evenodd"/><path fill="#000000" d="M 224.660156 175.734375 C 224.660156 175.734375 224.710938 173.835938 226.046875 172.851562 C 226.171875 172.765625 226.171875 172.625 226.101562 172.519531 C 226.011719 172.414062 225.871094 172.378906 225.765625 172.464844 C 224.21875 173.589844 224.167969 175.734375 224.167969 175.734375 C 224.167969 175.875 224.273438 175.980469 224.394531 175.980469 C 224.535156 175.980469 224.660156 175.875 224.660156 175.734375 Z M 224.660156 175.734375 " fill-opacity="1" fill-rule="evenodd"/><path fill="#000000" d="M 146.140625 208.820312 C 146.140625 208.820312 143.453125 209.277344 141.152344 209.644531 C 141.011719 209.664062 140.925781 209.785156 140.941406 209.925781 C 140.976562 210.066406 141.101562 210.15625 141.242188 210.136719 C 143.558594 209.769531 146.210938 209.3125 146.210938 209.3125 C 146.355469 209.296875 146.441406 209.171875 146.421875 209.03125 C 146.40625 208.875 146.265625 208.785156 146.140625 208.820312 Z M 146.140625 208.820312 " fill-opacity="1" fill-rule="evenodd"/><path fill="#000000" d="M 145.789062 210.894531 C 145.789062 210.894531 144.789062 211.472656 141.609375 214.390625 C 141.503906 214.476562 141.503906 214.636719 141.589844 214.742188 C 141.679688 214.847656 141.835938 214.847656 141.925781 214.757812 C 145.050781 211.914062 146.019531 211.332031 146.019531 211.332031 C 146.140625 211.261719 146.160156 211.121094 146.105469 211 C 146.054688 210.875 145.894531 210.839844 145.789062 210.894531 Z M 145.789062 210.894531 " fill-opacity="1" fill-rule="evenodd"/><path fill="#1b3e77" d="M 200.765625 296.605469 C 200.765625 296.605469 203.875 297.78125 205.386719 301.085938 C 206.898438 304.390625 209.410156 311.839844 209.410156 311.839844 L 207.425781 319.0625 L 192.402344 333.222656 L 181.015625 343.539062 L 173.671875 349.125 C 173.671875 349.125 165.082031 350.355469 164.519531 345.523438 C 163.972656 340.691406 168.699219 332.835938 169.683594 330.726562 C 170.667969 328.621094 182.351562 307.375 182.351562 307.375 L 186.304688 307.058594 C 186.304688 307.058594 188.042969 303.703125 191.117188 303.351562 C 194.195312 303.019531 200.132812 301.277344 200.765625 296.605469 Z M 200.765625 296.605469 " fill-opacity="1" fill-rule="evenodd"/><path fill="#019cef" d="M 169.597656 331.148438 C 169.597656 331.148438 174.796875 331.027344 180.140625 332.34375 C 183.6875 333.207031 187.308594 334.699219 189.503906 337.28125 C 189.589844 337.386719 189.730469 337.386719 189.835938 337.316406 C 189.941406 337.230469 189.960938 337.070312 189.871094 336.964844 C 187.625 334.3125 183.898438 332.75 180.261719 331.871094 C 174.851562 330.535156 169.597656 330.65625 169.597656 330.65625 C 169.457031 330.65625 169.351562 330.78125 169.351562 330.902344 C 169.351562 331.027344 169.457031 331.148438 169.597656 331.148438 Z M 169.597656 331.148438 " fill-opacity="1" fill-rule="evenodd"/><path fill="#019cef" d="M 169.597656 330.902344 C 169.597656 330.902344 175.132812 311.257812 176.679688 306.988281 C 178.222656 302.71875 183.265625 300.804688 187.429688 305.480469 C 187.429688 305.480469 185.953125 306.777344 183.53125 312.578125 C 181.125 318.375 175.921875 331.167969 175.921875 331.167969 Z M 169.597656 330.902344 " fill-opacity="1" fill-rule="evenodd"/><path fill="#cbdaf3" d="M 209.410156 311.839844 C 209.410156 311.839844 211.726562 314.5625 211.554688 317.515625 C 211.378906 320.464844 204.578125 326.511719 203.277344 327.300781 C 201.960938 328.09375 198.917969 328.320312 198.917969 328.320312 C 198.917969 328.320312 175.132812 360.808594 165.097656 347.121094 C 165.097656 347.121094 168.804688 351.003906 177.273438 345.1875 C 185.726562 339.390625 209.410156 311.839844 209.410156 311.839844 Z M 209.410156 311.839844 " fill-opacity="1" fill-rule="evenodd"/><path fill="#fe9f3a" d="M 284.550781 251.496094 C 283.121094 247.527344 278.753906 245.480469 274.785156 246.914062 C 261.574219 251.679688 233.539062 261.800781 220.328125 266.566406 C 216.375 267.996094 214.324219 272.359375 215.753906 276.324219 L 230.714844 317.777344 C 232.144531 321.742188 236.511719 323.792969 240.464844 322.367188 C 253.691406 317.589844 281.726562 307.472656 294.921875 302.710938 C 298.890625 301.277344 300.941406 296.914062 299.511719 292.945312 C 295.644531 282.238281 288.417969 262.207031 284.550781 251.496094 Z M 284.550781 251.496094 " fill-opacity="1" fill-rule="evenodd"/><path fill="#000000" d="M 290.0625 266.039062 C 287.855469 259.921875 286.34375 255.726562 284.792969 251.429688 C 283.316406 247.34375 278.792969 245.222656 274.707031 246.699219 C 261.496094 251.464844 233.460938 261.585938 220.25 266.351562 C 216.164062 267.828125 214.054688 272.34375 215.527344 276.425781 C 217.082031 280.742188 218.710938 285.253906 220.917969 291.367188 C 220.964844 291.5 221.105469 291.5625 221.234375 291.515625 C 221.355469 291.472656 221.421875 291.335938 221.371094 291.203125 C 219.164062 285.089844 217.539062 280.578125 215.980469 276.261719 C 214.597656 272.429688 216.59375 268.195312 220.417969 266.816406 C 233.644531 262.042969 261.679688 251.925781 274.875 247.160156 C 278.726562 245.769531 282.9375 247.761719 284.324219 251.597656 C 285.878906 255.910156 287.386719 260.09375 289.59375 266.207031 C 289.640625 266.339844 289.796875 266.398438 289.914062 266.355469 C 290.054688 266.285156 290.105469 266.152344 290.0625 266.039062 Z M 290.0625 266.039062 " fill-opacity="1" fill-rule="evenodd"/><path fill="#ee7701" d="M 290.417969 267.765625 L 221.605469 292.601562 C 221.605469 292.601562 227.253906 308.257812 230.699219 317.796875 C 232.128906 321.757812 236.492188 323.8125 240.449219 322.382812 C 253.675781 317.609375 281.707031 307.492188 294.90625 302.730469 C 298.875 301.296875 300.921875 296.925781 299.492188 292.96875 C 296.066406 283.421875 290.417969 267.765625 290.417969 267.765625 Z M 290.417969 267.765625 " fill-opacity="1" fill-rule="evenodd"/><path fill="#703719" d="M 243.996094 258.035156 L 238.691406 259.949219 C 238.691406 259.949219 245.289062 278.226562 247.804688 285.191406 C 248.332031 286.65625 249.945312 287.417969 251.410156 286.890625 C 252.875 286.359375 253.632812 284.742188 253.105469 283.28125 C 250.59375 276.3125 243.996094 258.035156 243.996094 258.035156 Z M 243.996094 258.035156 " fill-opacity="1" fill-rule="evenodd"/><path fill="#703719" d="M 259.320312 252.503906 L 254.019531 254.417969 C 254.019531 254.417969 260.617188 272.695312 263.128906 279.660156 C 263.65625 281.125 265.273438 281.886719 266.738281 281.359375 C 268.203125 280.828125 268.960938 279.210938 268.429688 277.75 C 265.917969 270.78125 259.320312 252.503906 259.320312 252.503906 Z M 259.320312 252.503906 " fill-opacity="1" fill-rule="evenodd"/><path fill="#ffffff" d="M 209.742188 113.585938 L 203.980469 114.359375 L 204 122.757812 L 208.585938 122.757812 Z M 209.742188 113.585938 " fill-opacity="1" fill-rule="evenodd"/><path fill="#000000" d="M 209.972656 113.601562 C 209.988281 113.53125 209.953125 113.445312 209.917969 113.390625 C 209.867188 113.339844 209.777344 113.304688 209.707031 113.320312 L 203.964844 114.09375 C 203.839844 114.113281 203.753906 114.21875 203.753906 114.339844 L 203.753906 122.742188 C 203.753906 122.8125 203.789062 122.863281 203.824219 122.914062 C 203.875 122.96875 203.929688 122.984375 204 122.984375 L 208.585938 122.984375 C 208.726562 122.984375 208.8125 122.898438 208.832031 122.777344 Z M 209.460938 113.867188 L 208.375 122.496094 L 204.246094 122.496094 L 204.226562 114.550781 Z M 209.460938 113.867188 " fill-opacity="1" fill-rule="evenodd"/><path fill="#ffffff" d="M 196.214844 108.261719 L 199.640625 111.953125 L 192.734375 117.539062 L 188.992188 113.847656 L 192.703125 109.472656 Z M 196.214844 108.261719 " fill-opacity="1" fill-rule="evenodd"/><path fill="#000000" d="M 196.390625 108.085938 C 196.320312 108.015625 196.214844 108 196.128906 108.015625 L 192.632812 109.226562 C 192.578125 109.246094 192.542969 109.261719 192.527344 109.296875 L 188.816406 113.671875 C 188.730469 113.777344 188.730469 113.917969 188.835938 114.007812 L 192.578125 117.699219 C 192.667969 117.785156 192.808594 117.785156 192.894531 117.714844 L 199.800781 112.128906 C 199.851562 112.09375 199.886719 112.023438 199.886719 111.953125 C 199.90625 111.882812 199.871094 111.8125 199.835938 111.777344 Z M 196.144531 108.542969 L 199.273438 111.933594 L 192.753906 117.222656 L 189.328125 113.832031 L 192.839844 109.683594 Z M 196.144531 108.542969 " fill-opacity="1" fill-rule="evenodd"/><path fill="#7b97c1" d="M 200.183594 167.070312 C 201.378906 141.453125 209.691406 113.636719 209.691406 113.636719 C 211.867188 114.550781 213.890625 115.589844 215.71875 116.644531 C 215.664062 116.996094 214.101562 129.574219 213.117188 133.6875 L 208.039062 137.394531 L 211.449219 143.507812 C 211.449219 143.507812 205.527344 159.621094 200.183594 167.070312 Z M 200.183594 167.070312 " fill-opacity="1" fill-rule="evenodd"/><path fill="#000000" d="M 207.914062 137.183594 L 204.523438 139.152344 C 204.402344 139.222656 204.367188 139.363281 204.4375 139.484375 C 204.488281 139.609375 204.664062 139.644531 204.769531 139.574219 L 208.160156 137.605469 C 208.285156 137.535156 208.320312 137.394531 208.25 137.269531 C 208.179688 137.167969 208.023438 137.113281 207.914062 137.183594 Z M 207.914062 137.183594 " fill-opacity="1" fill-rule="evenodd"/><path fill="#7b97c1" d="M 217.640625 178.75 L 204.292969 180.316406 L 204.007812 177.875 L 217.355469 176.304688 Z M 217.640625 178.75 " fill-opacity="1" fill-rule="evenodd"/><path fill="#42608d" d="M 218.230469 165.539062 C 218.230469 165.539062 215.101562 159.878906 214.398438 153.695312 C 214.398438 153.695312 212.449219 164.308594 218.140625 171.089844 C 218.125 171.089844 218.914062 168.789062 218.230469 165.539062 Z M 218.230469 165.539062 " fill-opacity="1" fill-rule="evenodd"/><path fill="#000000" d="M 218.371094 165.632812 C 218.371094 165.632812 215.578125 160.5 214.539062 153.804688 C 214.503906 153.664062 214.398438 153.578125 214.257812 153.59375 C 214.117188 153.613281 214.03125 153.734375 214.046875 153.875 C 215.082031 160.660156 217.929688 165.859375 217.929688 165.859375 C 217.984375 165.984375 218.140625 166.019531 218.246094 165.964844 C 218.386719 165.894531 218.441406 165.738281 218.371094 165.632812 Z M 218.371094 165.632812 " fill-opacity="1" fill-rule="evenodd"/><path fill="#e2e2e2" d="M 189.644531 114.371094 C 189.644531 114.371094 171.546875 150.164062 169.859375 168.894531 C 169.859375 168.894531 167.488281 168.066406 163.78125 164.289062 C 163.78125 164.289062 174.710938 127.074219 189.644531 114.371094 Z M 189.644531 114.371094 " fill-opacity="1" fill-rule="evenodd"/><path fill="#000000" d="M 178.503906 130.699219 C 178.398438 130.699219 178.3125 130.648438 178.277344 130.542969 L 177.328125 128.152344 C 177.273438 128.027344 177.347656 127.886719 177.46875 127.835938 C 177.589844 127.78125 177.730469 127.851562 177.785156 127.976562 L 178.734375 130.367188 C 178.785156 130.488281 178.714844 130.628906 178.59375 130.683594 C 178.574219 130.699219 178.539062 130.699219 178.503906 130.699219 Z M 178.503906 130.699219 " fill-opacity="1" fill-rule="nonzero"/><path fill="#5679b0" d="M 169.929688 151.976562 C 167.859375 157.847656 166.152344 164.066406 165.082031 170.5 C 164.957031 171.269531 164.519531 171.972656 163.886719 172.429688 C 163.238281 172.886719 162.429688 173.0625 161.65625 172.90625 C 158.246094 172.253906 152.589844 169.902344 148.234375 161.816406 C 147.898438 161.1875 147.792969 160.449219 147.96875 159.746094 C 148.96875 155.863281 153.046875 142.367188 162.902344 135.234375 C 162.902344 135.234375 163.992188 130.699219 166.328125 128.871094 C 166.328125 128.871094 158.195312 124.566406 155.121094 117.539062 C 155.121094 117.539062 149.003906 114.199219 147.601562 105.976562 C 147.601562 105.976562 131.824219 86.4375 148.160156 59.222656 C 148.160156 59.222656 143.804688 55.460938 155.648438 42.914062 C 155.648438 42.914062 156.347656 35.816406 161.375 35.660156 C 166.398438 35.5 181.808594 43.214844 173.8125 48.554688 C 173.8125 48.554688 176.117188 54.847656 171.195312 57.042969 C 171.195312 57.042969 171.144531 69.800781 165.960938 76.84375 C 165.960938 76.84375 167.066406 79.339844 165.785156 81.554688 C 165.785156 81.554688 168.703125 83.59375 168.507812 88.109375 C 168.507812 88.109375 177.820312 97.015625 181.878906 107.171875 C 181.878906 107.171875 185.851562 107.050781 189.644531 107.945312 C 187.394531 110.175781 180.121094 117.574219 175.976562 123.320312 L 177.554688 128.0625 L 171.160156 131.683594 C 171.160156 131.683594 169.789062 141.859375 169.929688 151.976562 Z M 169.929688 151.976562 " fill-opacity="1" fill-rule="evenodd"/><path fill="#000000" d="M 165.925781 81.359375 L 161.671875 78.234375 C 161.566406 78.144531 161.410156 78.179688 161.339844 78.285156 C 161.253906 78.390625 161.285156 78.550781 161.375 78.621094 L 165.625 81.746094 C 165.730469 81.835938 165.890625 81.800781 165.960938 81.695312 C 166.066406 81.589844 166.03125 81.429688 165.925781 81.359375 Z M 165.925781 81.359375 " fill-opacity="1" fill-rule="evenodd"/><path fill="#42608d" d="M 175.710938 114.390625 C 175.710938 114.390625 170.84375 115.96875 167.242188 123.753906 C 167.242188 123.753906 164.433594 124.492188 163.535156 127.109375 C 163.535156 127.109375 165.34375 128.359375 166.363281 128.9375 C 166.363281 128.9375 167.523438 127.796875 168.980469 127.234375 C 169 127.214844 171.039062 119.449219 175.710938 114.390625 Z M 175.710938 114.390625 " fill-opacity="1" fill-rule="evenodd"/><path fill="#000000" d="M 166.46875 129.066406 C 166.46875 129.066406 167.945312 127.976562 168.964844 127.449219 C 169.015625 127.414062 169.070312 127.363281 169.105469 127.292969 C 169.105469 127.292969 171.371094 119.226562 176.152344 114.550781 C 176.257812 114.464844 176.257812 114.304688 176.152344 114.199219 C 176.0625 114.113281 175.90625 114.09375 175.816406 114.199219 C 171.265625 118.644531 168.949219 126.097656 168.667969 127.0625 C 167.613281 127.625 166.171875 128.679688 166.171875 128.679688 C 166.066406 128.765625 166.03125 128.90625 166.121094 129.011719 C 166.207031 129.117188 166.363281 129.136719 166.46875 129.066406 Z M 166.46875 129.066406 " fill-opacity="1" fill-rule="evenodd"/><path fill="#7b97c1" d="M 189.644531 107.945312 C 190.925781 108.246094 192.191406 108.683594 193.261719 109.28125 C 193.261719 109.28125 178.523438 127.503906 169.929688 151.976562 L 169.914062 151.976562 C 169.773438 141.859375 171.160156 131.683594 171.160156 131.683594 L 177.554688 128.0625 L 175.976562 123.320312 C 180.121094 117.574219 187.378906 110.175781 189.644531 107.945312 Z M 189.644531 107.945312 " fill-opacity="1" fill-rule="evenodd"/><path fill="#7b97c1" d="M 164.324219 155.109375 L 162.96875 157.414062 L 153.042969 151.578125 L 154.394531 149.273438 Z M 164.324219 155.109375 " fill-opacity="1" fill-rule="evenodd"/><path fill="#000000" d="M 166.046875 166.699219 C 166.046875 166.699219 170.441406 171.003906 177.097656 170.738281 C 177.660156 171.6875 181.542969 177.484375 190.714844 176.0625 C 191.101562 176.433594 192.71875 177.996094 194.84375 179.226562 C 196.476562 180.191406 198.394531 180.964844 200.257812 180.878906 C 200.378906 180.878906 200.484375 180.773438 200.484375 180.632812 C 200.46875 180.507812 200.363281 180.402344 200.238281 180.402344 C 198.480469 180.472656 196.652344 179.734375 195.089844 178.820312 C 192.71875 177.433594 190.960938 175.640625 190.960938 175.640625 C 190.910156 175.589844 190.839844 175.570312 190.769531 175.570312 C 181.070312 177.117188 177.449219 170.371094 177.449219 170.371094 C 177.414062 170.28125 177.308594 170.246094 177.222656 170.246094 C 170.6875 170.582031 166.382812 166.347656 166.382812 166.347656 C 166.292969 166.257812 166.152344 166.257812 166.066406 166.347656 C 165.960938 166.46875 165.960938 166.609375 166.046875 166.699219 Z M 166.046875 166.699219 " fill-opacity="1" fill-rule="evenodd"/><path fill="#e2e2e2" d="M 172.671875 153.871094 C 172.671875 153.871094 184.269531 153.730469 188.921875 141.183594 L 174.410156 145.753906 Z M 172.671875 153.871094 " fill-opacity="1" fill-rule="evenodd"/><path fill="#fe860e" d="M 148.832031 149.660156 L 152.363281 143.472656 C 152.363281 143.472656 155.875 139.941406 163.484375 140.910156 C 171.089844 141.875 177.59375 143.527344 184.882812 136.375 C 192.140625 129.222656 195.179688 121.863281 195.179688 121.863281 L 197.761719 122.074219 L 198.078125 123.707031 C 198.078125 123.707031 191.699219 143.261719 180.316406 148.621094 C 168.929688 153.980469 164.027344 148.113281 154.15625 152.910156 Z M 148.832031 149.660156 " fill-opacity="1" fill-rule="evenodd"/><path fill="#fe9f3a" d="M 195.265625 116.800781 L 198.867188 114.605469 L 202.960938 117.101562 L 202.382812 121.351562 L 198.058594 123.707031 L 195.160156 121.863281 Z M 195.265625 116.800781 " fill-opacity="1" fill-rule="evenodd"/><path fill="#000000" d="M 69.117188 150.480469 L 103.957031 136.441406 C 104.082031 136.386719 104.132812 136.265625 104.082031 136.140625 L 99.476562 124.703125 C 99.425781 124.578125 99.285156 124.527344 99.179688 124.578125 C 99.054688 124.632812 99.003906 124.753906 99.054688 124.878906 L 103.589844 136.105469 C 100.671875 137.285156 68.941406 150.058594 68.941406 150.058594 C 68.820312 150.109375 68.765625 150.234375 68.820312 150.355469 C 68.871094 150.460938 68.996094 150.53125 69.117188 150.480469 Z M 69.117188 150.480469 " fill-opacity="1" fill-rule="evenodd"/><path fill="#000000" d="M 144.910156 244.625 L 145.085938 242.339844 C 145.105469 242.21875 145 242.113281 144.878906 242.09375 C 144.738281 242.078125 144.632812 242.183594 144.632812 242.304688 L 144.4375 244.605469 C 144.4375 244.730469 144.527344 244.835938 144.667969 244.851562 C 144.773438 244.835938 144.894531 244.746094 144.910156 244.625 Z M 144.910156 244.625 " fill-opacity="1" fill-rule="evenodd"/><path fill="#000000" d="M 193.964844 243.273438 L 191.71875 244.886719 C 191.613281 244.957031 191.578125 245.097656 191.664062 245.203125 C 191.734375 245.308594 191.894531 245.328125 191.980469 245.257812 L 194.230469 243.640625 C 194.335938 243.570312 194.371094 243.429688 194.28125 243.324219 C 194.210938 243.21875 194.054688 243.203125 193.964844 243.273438 Z M 193.964844 243.273438 " fill-opacity="1" fill-rule="evenodd"/><path fill="#000000" d="M 194.757812 236.769531 L 192.859375 237.859375 C 192.753906 237.929688 192.71875 238.070312 192.769531 238.175781 C 192.824219 238.28125 192.980469 238.316406 193.085938 238.265625 L 194.984375 237.175781 C 195.109375 237.105469 195.125 236.964844 195.074219 236.859375 C 195.019531 236.753906 194.84375 236.699219 194.757812 236.769531 Z M 194.757812 236.769531 " fill-opacity="1" fill-rule="evenodd"/><path fill="#019cef" d="M 206.511719 304.207031 C 206.511719 304.207031 202.328125 310.605469 204.71875 317.050781 C 204.753906 317.175781 204.894531 317.226562 205.015625 317.191406 C 205.140625 317.140625 205.191406 317.015625 205.15625 316.894531 C 202.855469 310.65625 206.914062 304.472656 206.914062 304.472656 C 206.984375 304.367188 206.96875 304.226562 206.863281 304.15625 C 206.738281 304.066406 206.597656 304.101562 206.511719 304.207031 Z M 206.511719 304.207031 " fill-opacity="1" fill-rule="evenodd"/><path fill="#000000" d="M 172.214844 289.679688 L 174.019531 287.808594 C 174.117188 287.707031 174.113281 287.570312 174.027344 287.480469 C 173.941406 287.390625 173.78125 287.394531 173.707031 287.488281 L 171.902344 289.355469 C 171.804688 289.457031 171.808594 289.59375 171.894531 289.683594 C 171.957031 289.78125 172.117188 289.777344 172.214844 289.679688 Z M 172.214844 289.679688 " fill-opacity="1" fill-rule="evenodd"/><path fill="#000000" d="M 227.824219 290.589844 L 247.203125 283.597656 C 247.324219 283.542969 247.394531 283.421875 247.34375 283.28125 C 247.289062 283.140625 247.148438 283.085938 247.027344 283.140625 L 227.648438 290.132812 C 227.507812 290.1875 227.453125 290.328125 227.507812 290.449219 C 227.558594 290.554688 227.699219 290.625 227.824219 290.589844 Z M 227.824219 290.589844 " fill-opacity="1" fill-rule="evenodd"/><path fill="#000000" d="M 226.59375 178.820312 C 226.59375 178.820312 226.59375 178.433594 226.769531 178.046875 C 226.875 177.800781 227.050781 177.554688 227.347656 177.414062 C 227.472656 177.363281 227.523438 177.203125 227.472656 177.082031 C 227.417969 176.960938 227.261719 176.90625 227.15625 176.976562 C 226.136719 177.46875 226.136719 178.820312 226.136719 178.820312 C 226.136719 178.960938 226.242188 179.066406 226.382812 179.066406 C 226.488281 179.066406 226.59375 178.960938 226.59375 178.820312 Z M 226.59375 178.820312 " fill-opacity="1" fill-rule="evenodd"/><path fill="#000000" d="M 165.855469 76.398438 L 163.5 75.117188 C 163.378906 75.046875 163.21875 75.101562 163.167969 75.222656 C 163.113281 75.347656 163.148438 75.488281 163.273438 75.558594 L 165.625 76.839844 C 165.75 76.910156 165.890625 76.855469 165.960938 76.75 C 166.011719 76.609375 165.960938 76.46875 165.855469 76.398438 Z M 165.855469 76.398438 " fill-opacity="1" fill-rule="evenodd"/></svg>